<svg width="19" height="21" viewBox="0 0 19 21" fill="none" xmlns="http://www.w3.org/2000/svg">
<path d="M7.70312 3.67188V4.03125H11.2969V3.67188C11.2969 3.19531 11.1076 2.73827 10.7706 2.40129C10.4336 2.06431 9.97656 1.875 9.5 1.875C9.02344 1.875 8.5664 2.06431 8.22942 2.40129C7.89244 2.73827 7.70312 3.19531 7.70312 3.67188ZM6.26562 4.03125V3.67188C6.26562 2.81407 6.60639 1.99139 7.21295 1.38483C7.81951 0.778263 8.64219 0.4375 9.5 0.4375C10.3578 0.4375 11.1805 0.778263 11.787 1.38483C12.3936 1.99139 12.7344 2.81407 12.7344 3.67188V4.03125H18.125C18.3156 4.03125 18.4984 4.10698 18.6332 4.24177C18.768 4.37656 18.8438 4.55938 18.8438 4.75C18.8438 4.94062 18.768 5.12344 18.6332 5.25823C18.4984 5.39302 18.3156 5.46875 18.125 5.46875H17.0411L15.6813 17.377C15.581 18.254 15.1614 19.0634 14.5026 19.6509C13.8438 20.2384 12.9918 20.5629 12.1091 20.5625H6.89094C6.00821 20.5629 5.15621 20.2384 4.49739 19.6509C3.83857 19.0634 3.41903 18.254 3.31875 17.377L1.95887 5.46875H0.875C0.684376 5.46875 0.501559 5.39302 0.366767 5.25823C0.231975 5.12344 0.15625 4.94062 0.15625 4.75C0.15625 4.55938 0.231975 4.37656 0.366767 4.24177C0.501559 4.10698 0.684376 4.03125 0.875 4.03125H6.26562ZM4.74762 17.2131C4.80763 17.7392 5.0591 18.2248 5.4541 18.5774C5.8491 18.93 6.36003 19.1249 6.8895 19.125H12.1098C12.6393 19.1249 13.1502 18.93 13.5452 18.5774C13.9402 18.2248 14.1916 17.7392 14.2517 17.2131L15.595 5.46875H3.40572L4.74762 17.2131ZM7.34375 7.98438C7.53437 7.98438 7.71719 8.0601 7.85198 8.19489C7.98677 8.32968 8.0625 8.5125 8.0625 8.70312V15.8906C8.0625 16.0812 7.98677 16.2641 7.85198 16.3989C7.71719 16.5336 7.53437 16.6094 7.34375 16.6094C7.15313 16.6094 6.97031 16.5336 6.83552 16.3989C6.70073 16.2641 6.625 16.0812 6.625 15.8906V8.70312C6.625 8.5125 6.70073 8.32968 6.83552 8.19489C6.97031 8.0601 7.15313 7.98438 7.34375 7.98438ZM12.375 8.70312C12.375 8.5125 12.2993 8.32968 12.1645 8.19489C12.0297 8.0601 11.8469 7.98438 11.6562 7.98438C11.4656 7.98438 11.2828 8.0601 11.148 8.19489C11.0132 8.32968 10.9375 8.5125 10.9375 8.70312V15.8906C10.9375 16.0812 11.0132 16.2641 11.148 16.3989C11.2828 16.5336 11.4656 16.6094 11.6562 16.6094C11.8469 16.6094 12.0297 16.5336 12.1645 16.3989C12.2993 16.2641 12.375 16.0812 12.375 15.8906V8.70312Z" fill="#414454"/>
</svg>
