<svg width="22" height="23" viewBox="0 0 22 23" fill="none" xmlns="http://www.w3.org/2000/svg">
<g clip-path="url(#clip0_4083_21657)">
<path d="M10.729 22.9982C10.1277 22.9009 9.66724 22.5622 9.25817 22.1334C8.93237 21.7959 8.58086 21.4813 8.25226 21.1466C8.0332 20.9249 7.78619 20.8545 7.48163 20.9041C6.9172 20.9956 6.3511 21.0775 5.78332 21.1499C4.52929 21.3069 3.62174 20.6059 3.41497 19.336C3.32611 18.7902 3.22608 18.2455 3.13555 17.6998C3.1172 17.5623 3.06465 17.4317 2.98278 17.3202C2.90091 17.2086 2.79237 17.1197 2.66724 17.0617C2.15087 16.7973 1.6401 16.5221 1.131 16.2442C0.0692041 15.6664 -0.282864 14.5692 0.236855 13.4737C0.485538 12.9471 0.739808 12.4227 1.00079 11.9028C1.06949 11.7785 1.10555 11.6385 1.10555 11.4963C1.10555 11.354 1.06949 11.2141 1.00079 11.0898C0.742044 10.5766 0.492803 10.0584 0.245238 9.53966C-0.285658 8.42561 0.0731155 7.32451 1.1567 6.73879C1.65407 6.4704 2.14864 6.19639 2.65327 5.94264C2.94834 5.7941 3.09643 5.5696 3.14672 5.24833C3.23726 4.67217 3.33226 4.09658 3.44738 3.52493C3.69271 2.3113 4.64329 1.66087 5.85765 1.8533C6.42263 1.94276 6.98929 2.02209 7.55539 2.10199C7.67693 2.12242 7.80158 2.11259 7.91848 2.07336C8.03537 2.03413 8.14095 1.96669 8.226 1.87693C8.64774 1.45644 9.07394 1.03989 9.50462 0.627284C10.3753 -0.208813 11.5276 -0.209376 12.3983 0.627284C12.818 1.03014 13.2365 1.433 13.6478 1.84598C13.8714 2.07386 14.1268 2.14363 14.4386 2.09242C15.003 1.99959 15.5691 1.91294 16.1369 1.84767C17.3736 1.70195 18.2583 2.3715 18.4812 3.60933C18.579 4.15397 18.6763 4.69862 18.7607 5.24551C18.8098 5.56679 18.9585 5.79241 19.253 5.94095C19.7504 6.19189 20.2382 6.46309 20.7294 6.72866C21.8471 7.33013 22.2009 8.42842 21.6448 9.57904C21.4079 10.0697 21.1787 10.5648 20.9273 11.0481C20.7686 11.3536 20.7652 11.6344 20.9239 11.9422C21.1843 12.4457 21.4269 12.9594 21.6688 13.4726C22.188 14.5697 21.8365 15.6669 20.7747 16.2436C20.2717 16.5182 19.7688 16.7933 19.258 17.0505C18.9551 17.2024 18.8076 17.4342 18.7551 17.7645C18.6679 18.3333 18.5718 18.901 18.4578 19.4654C18.2124 20.6818 17.2674 21.3334 16.0548 21.1432C15.4898 21.0554 14.9226 20.9789 14.357 20.8956C14.2358 20.8744 14.1113 20.8835 13.9943 20.922C13.8774 20.9606 13.7717 21.0274 13.6864 21.1167C13.3416 21.4577 12.9828 21.7846 12.6464 22.134C12.234 22.5627 11.7769 22.9015 11.1755 22.9988L10.729 22.9982ZM16.4174 19.8513C16.8086 19.8632 17.0847 19.6539 17.1529 19.2943C17.2507 18.7801 17.3602 18.2664 17.42 17.7476C17.5273 16.8192 17.9749 16.1654 18.8266 15.7749C19.2781 15.5679 19.709 15.3136 20.1477 15.0767C20.5864 14.8398 20.7004 14.5 20.483 14.0476C20.2315 13.5227 19.98 12.9971 19.7196 12.4767C19.391 11.8218 19.391 11.1736 19.7196 10.5187C19.9739 10.0123 20.2164 9.49858 20.4634 8.9877C20.7104 8.47681 20.6043 8.16398 20.1086 7.89841C19.5972 7.62496 19.0848 7.3532 18.5734 7.07863C17.9878 6.76354 17.6162 6.28585 17.496 5.62193C17.3842 4.99682 17.2775 4.37059 17.1607 3.74605C17.0791 3.30775 16.7762 3.09057 16.3414 3.15189C15.7753 3.23179 15.2087 3.30944 14.6443 3.40059C13.8926 3.52212 13.2511 3.32575 12.7118 2.78167C12.3206 2.38331 11.9121 1.99902 11.5108 1.60911C11.1197 1.22876 10.7844 1.23101 10.387 1.61642C9.97013 2.02153 9.55436 2.42889 9.13691 2.834C8.66525 3.29143 8.10809 3.50918 7.45145 3.41972C6.83282 3.33813 6.2153 3.25092 5.59779 3.15865C5.13451 3.09113 4.82938 3.29762 4.74221 3.75843C4.64944 4.25075 4.54102 4.74194 4.48626 5.23876C4.38343 6.17839 3.92742 6.835 3.06904 7.22829C2.62197 7.43253 2.20005 7.68348 1.76751 7.91585C1.3115 8.16173 1.20253 8.49425 1.42662 8.95957C1.67922 9.48452 1.92957 10.0095 2.18999 10.5305C2.51244 11.1781 2.513 11.8206 2.18999 12.4688C1.93404 12.9836 1.68704 13.5024 1.43668 14.02C1.19862 14.5135 1.30256 14.8353 1.78483 15.0941C2.28779 15.3648 2.79074 15.6377 3.3004 15.9027C3.95648 16.2453 4.32419 16.786 4.43876 17.518C4.52705 18.0863 4.63044 18.6529 4.73662 19.2184C4.82994 19.7129 5.1278 19.9127 5.61679 19.8373C6.18233 19.7506 6.74899 19.6741 7.31509 19.5903C8.05164 19.4806 8.67475 19.7 9.20061 20.2272C9.5918 20.6177 9.99025 20.9986 10.3859 21.3834C10.7816 21.7683 11.118 21.7711 11.5092 21.3908C11.9004 21.0104 12.2988 20.6402 12.6777 20.2491C13.2438 19.6651 13.9144 19.4654 14.7085 19.6072C15.2886 19.7079 15.8703 19.7737 16.4174 19.8513Z" fill="black"/>
<path d="M15.9885 7.135C15.9298 7.26779 15.8767 7.40451 15.8085 7.5328C15.7665 7.59454 15.7161 7.65003 15.6587 7.69765C12.8314 10.5447 10.0042 13.3919 7.17726 16.2392C7.01576 16.4018 6.84811 16.5425 6.60222 16.5363C6.48235 16.5389 6.36426 16.5068 6.26195 16.4439C6.15963 16.381 6.07738 16.2898 6.02494 16.1813C5.9644 16.0726 5.93738 15.9483 5.94733 15.8241C5.95728 15.7 6.00376 15.5816 6.08083 15.4842C6.13191 15.4193 6.18797 15.3585 6.24848 15.3024C9.07359 12.4554 11.9007 9.60879 14.73 6.76253C14.8915 6.59936 15.0591 6.46207 15.305 6.46489C15.6638 6.4677 15.9527 6.75521 15.9885 7.135Z" fill="black"/>
<path d="M8.30666 10.3881C7.98847 10.3872 7.67362 10.3227 7.38031 10.1985C7.08701 10.0743 6.82107 9.89278 6.59787 9.66445C6.37467 9.43612 6.19865 9.16551 6.07997 8.86826C5.96129 8.57101 5.90232 8.25303 5.90645 7.93269C5.91558 7.29001 6.17617 6.6769 6.63165 6.22654C7.08712 5.77617 7.70069 5.52492 8.33908 5.52736C8.97751 5.53683 9.58653 5.79923 10.0341 6.25768C10.4817 6.71614 10.7319 7.33371 10.7303 7.97658C10.725 8.61947 10.4671 9.23408 10.0129 9.686C9.55868 10.1379 8.94522 10.3903 8.30666 10.3881ZM8.32566 6.86253C8.03652 6.85937 7.75791 6.97169 7.55084 7.1749C7.34377 7.37811 7.22511 7.65565 7.22084 7.94676C7.20743 8.54654 7.71932 9.06812 8.32007 9.06699C8.6091 9.06276 8.88506 8.94505 9.08914 8.73894C9.29322 8.53284 9.40928 8.25464 9.4126 7.96363C9.4132 7.67259 9.29908 7.39319 9.09531 7.18676C8.89153 6.98033 8.61473 6.86372 8.32566 6.86253Z" fill="black"/>
<path d="M13.5928 12.6133C13.9089 12.6133 14.222 12.6761 14.514 12.7982C14.8061 12.9202 15.0713 13.0991 15.2945 13.3245C15.5177 13.5499 15.6946 13.8175 15.8149 14.1119C15.9353 14.4063 15.9967 14.7217 15.9958 15.04C15.9934 15.6865 15.7364 16.3057 15.2812 16.7617C14.826 17.2177 14.2097 17.4732 13.5676 17.4723C12.9294 17.4638 12.3201 17.2025 11.8718 16.7451C11.4234 16.2876 11.172 15.6709 11.1719 15.0282C11.1754 14.3849 11.4323 13.7693 11.8862 13.3166C12.3401 12.8638 12.9538 12.6109 13.5928 12.6133ZM13.5782 16.1372C13.8674 16.1408 14.1462 16.0287 14.3533 15.8255C14.5605 15.6223 14.6791 15.3447 14.6831 15.0535C14.697 14.452 14.1874 13.9327 13.5844 13.9338C13.2962 13.9378 13.021 14.0548 12.8174 14.2601C12.6137 14.4654 12.4977 14.7426 12.4941 15.0327C12.4927 15.3236 12.6062 15.6031 12.8095 15.8098C13.0128 16.0165 13.2893 16.1334 13.5782 16.1349V16.1372Z" fill="black"/>
</g>
<defs>
<clipPath id="clip0_4083_21657">
<rect width="21.9048" height="23" fill="white"/>
</clipPath>
</defs>
</svg>
