<svg width="20" height="20" viewBox="0 0 20 20" fill="none" xmlns="http://www.w3.org/2000/svg">
<path fill-rule="evenodd" clip-rule="evenodd" d="M15.2736 1.473C14.7976 1.287 14.2646 1.256 13.5816 1.251C13.4398 0.951472 13.2158 0.69838 12.9357 0.521172C12.6557 0.343965 12.3311 0.249927 11.9996 0.25H7.99963C7.66832 0.249837 7.34378 0.343726 7.06372 0.52075C6.78367 0.697774 6.55963 0.950659 6.41763 1.25C5.73363 1.256 5.20163 1.287 4.72563 1.473C4.15741 1.69527 3.66323 2.07301 3.29964 2.563C2.93264 3.056 2.75964 3.69 2.52364 4.561L1.89563 6.864C1.50187 7.0619 1.15691 7.34469 0.885635 7.692C0.263635 8.489 0.153635 9.438 0.264635 10.526C0.371635 11.582 0.704635 12.912 1.12063 14.576L1.14663 14.683C1.41063 15.735 1.62364 16.59 1.87764 17.257C2.14263 17.953 2.47963 18.523 3.03363 18.956C3.58863 19.389 4.22363 19.576 4.96263 19.666C5.67063 19.75 6.55263 19.75 7.63763 19.75H12.3616C13.4466 19.75 14.3276 19.75 15.0366 19.665C15.7766 19.577 16.4106 19.389 16.9646 18.955C17.5196 18.523 17.8556 17.953 18.1206 17.257C18.3756 16.59 18.5886 15.735 18.8516 14.682L18.8786 14.577C19.2946 12.912 19.6266 11.582 19.7346 10.527C19.8446 9.437 19.7346 8.489 19.1126 7.692C18.8416 7.34481 18.497 7.06202 18.1036 6.864L17.4756 4.561C17.2386 3.69 17.0656 3.056 16.6996 2.562C16.3359 2.07238 15.8417 1.695 15.2736 1.473ZM5.27163 2.87C5.49163 2.784 5.75763 2.759 6.41863 2.752C6.70063 3.342 7.30263 3.75 7.99863 3.75H11.9986C12.6966 3.75 13.2986 3.342 13.5806 2.752C14.2416 2.759 14.5076 2.784 14.7276 2.87C15.0336 2.99 15.2996 3.193 15.4956 3.457C15.6716 3.694 15.7746 4.025 16.0656 5.092L16.4196 6.389C15.3816 6.25 14.0416 6.25 12.3766 6.25H7.62163C5.95763 6.25 4.61763 6.25 3.57963 6.389L3.93363 5.092C4.22363 4.025 4.32763 3.694 4.50363 3.457C4.69945 3.19311 4.9656 2.98968 5.27163 2.87ZM7.99963 1.75C7.93333 1.75 7.86974 1.77634 7.82286 1.82322C7.77597 1.87011 7.74963 1.9337 7.74963 2C7.74963 2.0663 7.77597 2.12989 7.82286 2.17678C7.86974 2.22366 7.93333 2.25 7.99963 2.25H11.9996C12.0659 2.25 12.1295 2.22366 12.1764 2.17678C12.2233 2.12989 12.2496 2.0663 12.2496 2C12.2496 1.9337 12.2233 1.87011 12.1764 1.82322C12.1295 1.77634 12.0659 1.75 11.9996 1.75H7.99963ZM2.06863 8.615C2.34763 8.258 2.78863 8.018 3.69863 7.886C4.62963 7.752 5.89163 7.75 7.68464 7.75H12.3146C14.1076 7.75 15.3686 7.752 16.2996 7.886C17.2106 8.018 17.6516 8.258 17.9306 8.616C18.2096 8.973 18.3356 9.458 18.2416 10.374C18.1466 11.31 17.8426 12.534 17.4076 14.274C17.1306 15.382 16.9376 16.15 16.7196 16.724C16.5076 17.278 16.3006 17.571 16.0416 17.774C15.7826 17.976 15.4476 18.105 14.8586 18.176C14.2486 18.249 13.4586 18.25 12.3146 18.25H7.68464C6.54064 18.25 5.74963 18.249 5.14063 18.176C4.55063 18.106 4.21664 17.976 3.95764 17.774C3.69764 17.571 3.49064 17.278 3.27964 16.724C3.06164 16.15 2.86864 15.382 2.59064 14.274C2.15664 12.534 1.85163 11.31 1.75663 10.374C1.66363 9.458 1.78963 8.972 2.06863 8.615Z" fill="#414454"/>
</svg>
