<svg width="33" height="16" viewBox="0 0 33 16" fill="none" xmlns="http://www.w3.org/2000/svg">
<g clip-path="url(#clip0_4226_21624)">
<path d="M0.000904083 9.91134C0.231915 10.2991 0.578434 10.4107 1.02794 10.4041C2.37551 10.3852 3.7173 10.3974 5.06198 10.3974C5.88592 10.3974 6.1025 10.1828 6.10923 9.36943C6.10923 9.26634 6.1179 9.16326 6.1256 9.00059C7.23818 9.77492 8.57414 10.1783 9.93729 10.1516V10.5667C9.93729 12.0881 9.93729 13.6098 9.93729 15.1318C9.93729 15.7456 10.1904 15.9981 10.8036 15.9981C13.3017 15.9981 15.7992 15.9981 18.2961 15.9981C18.8264 15.9981 19.1527 15.7305 19.1624 15.303C19.172 14.8755 18.8351 14.5852 18.2874 14.5842C17.1843 14.5842 16.0822 14.5842 14.9714 14.5842C14.5258 12.6729 13.3476 11.5125 11.3801 11.0651C11.3801 10.7445 11.3715 10.4031 11.3888 10.0674C11.3888 10.0059 11.4908 9.91985 11.563 9.8962C12.319 9.65931 13.0269 9.29409 13.6546 8.81712C13.7076 8.78712 13.7661 8.76783 13.8268 8.76035C13.8875 8.75288 13.949 8.75739 14.0079 8.77361C14.725 8.96276 15.4363 9.1765 16.1496 9.37983C16.9071 9.59641 17.654 9.89715 18.4674 9.60492C18.4501 12.0052 20.509 13.02 22.0076 12.7457C23.618 12.4506 24.7307 10.8542 24.3765 9.25783C23.9645 7.4108 22.3657 6.63908 20.1124 7.21409C19.994 6.29862 19.5243 5.61769 18.5723 5.16846C18.7927 5.15806 18.9054 5.14765 19.018 5.14765C21.8758 5.14765 24.7336 5.14765 27.5914 5.14009C27.8802 5.14009 27.986 5.21953 28.0669 5.5042C28.5241 7.11195 29.5848 8.13997 31.2327 8.57217L31.5388 8.65161V11.0812C30.3577 11.3063 29.3837 11.8577 28.7243 12.8375C28.4375 13.2842 28.2137 13.7672 28.0592 14.2731C27.9706 14.5407 27.8667 14.5908 27.6203 14.5871C26.7674 14.5767 25.9146 14.5814 25.0628 14.5871C24.5391 14.5871 24.21 14.8651 24.21 15.2935C24.21 15.722 24.5391 16.0009 25.0618 16.0009C27.4271 16.0009 29.7924 16.0009 32.1577 16.0009C32.7237 16.0009 32.9961 15.7314 32.9961 15.1725C32.9961 11.6335 32.9961 8.09426 32.9961 4.55468C32.9961 3.99669 32.7324 3.74039 32.149 3.7385C30.609 3.73377 29.0756 3.74323 27.5384 3.7281C27.3557 3.72394 27.1811 3.65315 27.0485 3.5295C25.159 1.50656 22.8383 0.331008 20.0527 0.0539071C19.9956 0.0422446 19.94 0.0241563 19.8871 0H0.000904083V9.91134ZM25.0839 3.73472H24.6989C21.4099 3.73472 18.1209 3.72148 14.8318 3.74323C13.9656 3.74796 13.1416 3.66568 12.3244 3.39142C11.6891 3.17863 11.3022 3.32711 11.1636 3.76971C11.0202 4.23218 11.2743 4.55562 11.9336 4.74382C13.9001 5.31127 15.8675 5.86925 17.8311 6.44615C18.0482 6.5074 18.2481 6.61676 18.4154 6.76581C18.5601 6.91029 18.6495 7.09949 18.6684 7.30132C18.6874 7.50316 18.6347 7.70522 18.5194 7.87327C18.2768 8.25157 17.8629 8.39532 17.3489 8.25157C16.2555 7.94136 15.161 7.634 14.0762 7.30583C13.6296 7.16964 13.2927 7.23774 12.9318 7.55456C11.0269 9.22757 8.10075 9.11408 6.36912 7.31056C6.22279 7.14965 6.13687 6.94442 6.1256 6.72893C6.10731 5.07767 6.11501 3.42641 6.11597 1.77515C6.11597 1.66355 6.12848 1.55101 6.13715 1.4205H6.42014C10.6553 1.4205 14.8906 1.40726 19.1315 1.43468C19.8861 1.44933 20.6367 1.5464 21.3695 1.72408C22.7736 2.04247 24.0598 2.73868 25.0839 3.73472ZM1.45916 8.96844V1.43279H4.63557V8.96844H1.45916ZM22.9962 9.8631C22.9962 10.2608 22.8369 10.6426 22.5526 10.9258C22.2684 11.209 21.8821 11.3708 21.4773 11.3763C21.072 11.3763 20.683 11.2194 20.3947 10.9395C20.1064 10.6596 19.942 10.2793 19.9372 9.88107C19.934 9.68078 19.9715 9.48187 20.0476 9.29601C20.1237 9.11016 20.2367 8.9411 20.3802 8.79875C20.5236 8.6564 20.6946 8.54362 20.8829 8.46704C21.0713 8.39046 21.2734 8.3516 21.4773 8.35276C21.8824 8.35551 22.2699 8.51609 22.5547 8.79926C22.8394 9.08242 22.9982 9.46503 22.9962 9.8631ZM29.4934 14.5719C29.6272 13.6366 30.6542 12.6445 31.5301 12.5859V14.5719H29.4934ZM13.4419 14.554H11.3782V12.5585C12.3899 12.7533 13.2841 13.63 13.4419 14.554ZM31.5484 7.16491C30.5531 6.9909 29.5434 5.98558 29.5174 5.17886H31.5484V7.16491Z" fill="#414454"/>
<path d="M21.7005 15.9942C21.8931 15.9875 22.0754 15.9064 22.2075 15.7684C22.3396 15.6304 22.4109 15.4468 22.406 15.2574C22.3975 15.0741 22.3167 14.9013 22.1807 14.7756C22.0446 14.6499 21.8641 14.5812 21.6774 14.5841C21.5819 14.5855 21.4876 14.6057 21.4001 14.6434C21.3127 14.6811 21.2338 14.7357 21.1681 14.8038C21.1023 14.8719 21.0511 14.9522 21.0174 15.04C20.9837 15.1278 20.9682 15.2213 20.9718 15.3151C20.9819 15.4984 21.063 15.6709 21.1986 15.7972C21.3341 15.9235 21.5137 15.994 21.7005 15.9942Z" fill="#414454"/>
</g>
<defs>
<clipPath id="clip0_4226_21624">
<rect width="33" height="16" fill="white" transform="matrix(-1 0 0 1 33 0)"/>
</clipPath>
</defs>
</svg>
