<svg width="22" height="22" viewBox="0 0 22 22" fill="none" xmlns="http://www.w3.org/2000/svg">
<g clip-path="url(#clip0_4226_21627)">
<path d="M21.9988 11.0116C21.9988 13.0343 22.0046 15.0576 21.9988 17.0802C21.9905 19.3234 20.6106 21.1948 18.4886 21.7991C18.0268 21.9269 17.5499 21.9915 17.0709 21.9914C13.025 22.0055 8.97912 22.0076 4.93324 21.9978C2.376 21.9933 0.38596 20.243 0.0340989 17.7038C0.00972793 17.4894 9.27921e-05 17.2735 0.00525899 17.0578C0.00525899 13.0202 0.00525899 8.98252 0.00525899 4.94489C0.00525899 2.51397 1.59921 0.558601 3.95585 0.0913884C4.28611 0.0315658 4.62135 0.00366513 4.95696 0.00807207C8.98702 0.00251764 13.0169 0.00251764 17.0465 0.00807207C19.4858 0.00807207 21.4374 1.58916 21.9085 3.94765C21.9721 4.30142 22.0015 4.66048 21.9963 5.01987C22.0027 7.01369 21.9988 9.01265 21.9988 11.0116ZM1.53896 11.0001C1.53896 12.9988 1.53896 14.9975 1.53896 16.9963C1.53291 17.2118 1.54492 17.4275 1.57486 17.641C1.86711 19.3362 3.20213 20.461 4.93324 20.461C8.97869 20.4657 13.0239 20.4657 17.0689 20.461C17.2606 20.4652 17.4523 20.453 17.6419 20.4244C19.3391 20.1296 20.4619 18.7998 20.4619 17.0661C20.4662 13.0217 20.4662 8.97654 20.4619 4.93079C20.4658 4.73911 20.4536 4.54745 20.4254 4.35783C20.1319 2.66138 18.7994 1.53789 17.0677 1.53789C13.0222 1.53447 8.97677 1.53447 4.93132 1.53789C4.73968 1.53356 4.54801 1.54535 4.35834 1.57314C2.67274 1.86474 1.54345 3.19652 1.53832 4.90579C1.5332 6.93871 1.53896 8.97291 1.53896 11.0001Z" fill="#414454"/>
<path d="M15.2601 7.67739C14.8352 7.67739 14.4596 7.68444 14.0853 7.67739C13.92 7.67953 13.7585 7.62839 13.6246 7.53154C13.4907 7.43469 13.3915 7.29729 13.3418 7.13968C13.2444 6.83974 13.3258 6.50327 13.5873 6.3251C13.7368 6.22233 13.9118 6.16309 14.093 6.15398C15.0999 6.13796 16.1074 6.14181 17.1143 6.14757C17.5937 6.14757 17.9058 6.46802 17.9071 6.94869C17.9096 7.93994 17.9096 8.93119 17.9071 9.92245C17.9071 10.4044 17.5712 10.7556 17.1303 10.7486C16.6893 10.7415 16.3772 10.3948 16.3734 9.92629C16.3734 9.56098 16.3734 9.19503 16.3734 8.78229C16.2798 8.86817 16.2163 8.92201 16.158 8.98033L12.715 12.4219C12.2536 12.8834 11.9568 12.9071 11.4088 12.5386C10.6333 12.0175 9.85527 11.5003 9.06118 10.9703C8.99709 11.0344 8.93299 11.0902 8.8689 11.1504C7.72594 12.2912 6.58298 13.4318 5.44002 14.5721C4.97663 15.0329 4.27355 14.8625 4.11589 14.2562C4.03513 13.9466 4.14857 13.696 4.36777 13.4768C5.27915 12.5689 6.18946 11.6593 7.0987 10.7479L8.28567 9.56098C8.71316 9.13414 9.01824 9.10146 9.5143 9.4328C10.259 9.92885 11.0027 10.4262 11.7453 10.9248C11.8568 10.9998 11.9312 11.035 12.0485 10.9165C13.0842 9.87181 14.127 8.83485 15.1672 7.79467C15.1896 7.77096 15.2069 7.74468 15.2601 7.67739Z" fill="#414454"/>
</g>
<defs>
<clipPath id="clip0_4226_21627">
<rect width="22" height="22" fill="white"/>
</clipPath>
</defs>
</svg>
