<svg width="23" height="23" viewBox="0 0 23 23" fill="none" xmlns="http://www.w3.org/2000/svg">
<path fill-rule="evenodd" clip-rule="evenodd" d="M18.1787 3.50668C17.9785 3.30645 17.7408 3.14762 17.4792 3.03925C17.2176 2.93089 16.9372 2.87512 16.654 2.87512C16.3709 2.87512 16.0905 2.93089 15.8289 3.03925C15.5672 3.14762 15.3295 3.30645 15.1293 3.50668L4.64515 13.9908C3.97122 14.6649 3.59267 15.579 3.59276 16.5322C3.59285 17.4854 3.97158 18.3994 4.64562 19.0734C5.31967 19.7473 6.23383 20.1258 7.18698 20.1257C8.14014 20.1257 9.05423 19.7469 9.72815 19.0729L17.1006 11.7004C17.2369 11.5735 17.4171 11.5043 17.6033 11.5076C17.7895 11.5109 17.9671 11.5864 18.0988 11.718C18.2305 11.8497 18.3059 12.0274 18.3092 12.2136C18.3125 12.3998 18.2434 12.58 18.1164 12.7163L10.744 20.0887C10.279 20.5658 9.72398 20.9459 9.11101 21.2068C8.49803 21.4677 7.83934 21.6042 7.17317 21.6085C6.50699 21.6129 5.84659 21.4848 5.23029 21.2319C4.61399 20.9789 4.05406 20.6061 3.58299 20.135C3.11193 19.664 2.7391 19.104 2.48615 18.4877C2.23321 17.8714 2.10517 17.211 2.10948 16.5449C2.11379 15.8787 2.25036 15.22 2.51125 14.607C2.77215 13.994 3.15219 13.439 3.62931 12.9741L14.1125 2.48988C14.7866 1.81596 15.7007 1.43741 16.6539 1.4375C17.607 1.43759 18.5211 1.81632 19.195 2.49036C19.869 3.16441 20.2475 4.07857 20.2474 5.03172C20.2473 5.98488 19.8686 6.89896 19.1946 7.57288L8.7171 18.0503L8.70944 18.058L8.70273 18.0647L8.70081 18.0666L8.69794 18.0686C8.28812 18.4511 7.74544 18.6589 7.18495 18.6481C6.62445 18.6372 6.09022 18.4085 5.69551 18.0104C5.30079 17.6124 5.07663 17.0762 5.07054 16.5157C5.06445 15.9551 5.27692 15.4142 5.66289 15.0076L13.1475 7.52305C13.283 7.39206 13.4645 7.31953 13.653 7.32108C13.8414 7.32262 14.0217 7.39813 14.155 7.53133C14.2884 7.66453 14.364 7.84477 14.3658 8.03322C14.3675 8.22167 14.2951 8.40327 14.1643 8.53888L6.67969 16.0235C6.54396 16.1574 6.46701 16.3398 6.46575 16.5305C6.46449 16.7212 6.53903 16.9045 6.67298 17.0403C6.80692 17.176 6.9893 17.2529 7.17998 17.2542C7.37067 17.2555 7.55405 17.1809 7.68977 17.047L18.1787 6.55513C18.379 6.35491 18.5378 6.1172 18.6462 5.85559C18.7545 5.59398 18.8103 5.31359 18.8103 5.03043C18.8103 4.74726 18.7545 4.46687 18.6462 4.20526C18.5378 3.94365 18.379 3.7069 18.1787 3.50668Z" fill="#0089B6"/>
</svg>
