<svg width="225" height="270" viewBox="0 0 225 270" fill="none" xmlns="http://www.w3.org/2000/svg">
<path d="M135.014 -27.1276C141.968 -10.268 147.819 6.92111 151.013 24.9347C159.002 69.9884 141.043 116.903 108.359 147.971C69.6142 184.807 12.9748 206.289 -40.4203 202.029C-43.7461 201.762 -46.2042 202.943 -48.0978 205.467C-49.3421 207.118 -50.5192 208.856 -51.4486 210.69C-56.5693 220.756 -59.4923 231.533 -60.4712 242.709C-60.9784 248.544 -60.6864 254.55 -59.9282 260.375C-59.1706 266.148 -56.0999 268.9 -50.4075 269.026C-36.8254 269.332 -23.1965 269.827 -9.65757 269.045C63.5365 264.815 138.191 220.173 182.258 162.229C204.215 133.361 219.026 98.548 223.119 62.3731C227.613 22.6298 215.935 -15.4743 200.626 -51.8094C200.387 -52.3892 200.054 -53.1706 199.674 -54.0678C197.129 -60.085 190.216 -62.9432 184.195 -60.4599L141.39 -42.8047C135.324 -40.303 132.442 -33.3629 134.951 -27.2792C134.974 -27.2257 134.996 -27.1722 135.018 -27.1186L135.014 -27.1276Z" stroke="#F3E008" stroke-opacity="0.17" stroke-miterlimit="10"/>
</svg>
