<svg width="25" height="24" viewBox="0 0 25 24" fill="none" xmlns="http://www.w3.org/2000/svg">
<path d="M12.25 7.75V11.75L14.75 14.25" stroke="#CE9944" stroke-width="1.5" stroke-linecap="round" stroke-linejoin="round"/>
<path d="M4.588 6.62223L3.838 6.62523C3.83879 6.82293 3.91761 7.01232 4.05731 7.15221C4.19701 7.2921 4.3863 7.37117 4.584 7.37223L4.588 6.62223ZM7.13 7.38423C7.22849 7.38469 7.32611 7.36574 7.41728 7.32847C7.50845 7.29121 7.59139 7.23635 7.66136 7.16703C7.73132 7.09771 7.78695 7.01529 7.82507 6.92447C7.86319 6.83365 7.88304 6.73622 7.8835 6.63773C7.88396 6.53923 7.86502 6.44162 7.82775 6.35045C7.79048 6.25928 7.73562 6.17634 7.66631 6.10637C7.59699 6.0364 7.51456 5.98077 7.42375 5.94266C7.33293 5.90454 7.23549 5.88469 7.137 5.88423L7.13 7.38423ZM5.325 4.07223C5.32394 3.87331 5.2439 3.68297 5.1025 3.54307C4.9611 3.40316 4.76991 3.32516 4.571 3.32623C4.37209 3.32729 4.18174 3.40732 4.04184 3.54872C3.90194 3.69013 3.82394 3.88131 3.825 4.08023L5.325 4.07223ZM4 11.7513C4 11.5523 3.92098 11.3616 3.78033 11.2209C3.63968 11.0803 3.44891 11.0013 3.25 11.0013C3.05109 11.0013 2.86032 11.0803 2.71967 11.2209C2.57902 11.3616 2.5 11.5523 2.5 11.7513H4ZM17.125 20.1963C17.2139 20.1489 17.2923 20.0842 17.3556 20.0059C17.4189 19.9277 17.4658 19.8374 17.4935 19.7406C17.5212 19.6439 17.5292 19.5425 17.5168 19.4426C17.5045 19.3426 17.4722 19.2462 17.4219 19.159C17.3715 19.0719 17.3041 18.9957 17.2237 18.9352C17.1433 18.8746 17.0515 18.8308 16.9538 18.8065C16.8561 18.7822 16.7545 18.7778 16.6551 18.7935C16.5556 18.8093 16.4604 18.8449 16.375 18.8983L17.125 20.1963ZM19.397 15.8763C19.3436 15.9616 19.308 16.0569 19.2923 16.1563C19.2765 16.2557 19.2809 16.3573 19.3053 16.455C19.3296 16.5527 19.3733 16.6445 19.4339 16.7249C19.4945 16.8054 19.5706 16.8728 19.6578 16.9231C19.745 16.9735 19.8414 17.0058 19.9413 17.0181C20.0412 17.0304 20.1426 17.0225 20.2394 16.9948C20.3362 16.9671 20.4264 16.9202 20.5047 16.8569C20.583 16.7935 20.6477 16.7151 20.695 16.6263L19.397 15.8763ZM5.39 4.82123C5.24864 4.96126 5.1687 5.15171 5.16776 5.35069C5.16682 5.54967 5.24497 5.74087 5.385 5.88223C5.52503 6.02359 5.71549 6.10353 5.91446 6.10447C6.11344 6.1054 6.30464 6.02726 6.446 5.88723L5.39 4.82123ZM19.112 4.88823C15.292 1.06823 9.119 1.03023 5.324 4.82523L6.384 5.88423C9.584 2.68523 14.807 2.70423 18.052 5.94923L19.112 4.88823ZM5.324 4.82523L4.058 6.09123L5.118 7.15123L6.385 5.88623L5.324 4.82523ZM4.584 7.37223L7.13 7.38423L7.137 5.88423L4.592 5.87223L4.584 7.37223ZM5.338 6.61823L5.325 4.07223L3.825 4.08023L3.838 6.62523L5.338 6.61823ZM12.25 3.50123C14.438 3.50123 16.5365 4.37042 18.0836 5.91759C19.6308 7.46477 20.5 9.56319 20.5 11.7513H22C22 9.16536 20.9728 6.68541 19.1443 4.85693C17.3158 3.02845 14.8359 2.00123 12.25 2.00123V3.50123ZM12.25 20.0013C10.062 20.0013 7.96354 19.1321 6.41637 17.5849C4.86919 16.0377 4 13.9393 4 11.7513H2.5C2.5 14.3371 3.52723 16.8171 5.35571 18.6455C7.18419 20.474 9.66414 21.5013 12.25 21.5013V20.0013ZM16.375 18.8983C15.1214 19.6233 13.6982 20.0039 12.25 20.0013V21.5013C14.025 21.5013 15.69 21.0263 17.125 20.1963L16.375 18.8983ZM20.5 11.7513C20.5026 13.1995 20.1221 14.6226 19.397 15.8763L20.695 16.6263C21.5522 15.1447 22.0024 13.4629 22 11.7513H20.5ZM6.446 5.88723C7.98891 4.35538 10.0758 3.4981 12.25 3.50123V2.00123C9.68036 1.99792 7.21394 3.01117 5.39 4.82123L6.446 5.88723Z" fill="#CE9944"/>
</svg>
