<svg width="21" height="20" viewBox="0 0 21 20" fill="none" xmlns="http://www.w3.org/2000/svg">
<g clip-path="url(#clip0_19_87)">
<mask id="mask0_19_87" style="mask-type:luminance" maskUnits="userSpaceOnUse" x="0" y="0" width="21" height="20">
<path d="M20.5 0H0.5V20H20.5V0Z" fill="white"/>
</mask>
<g mask="url(#mask0_19_87)">
<mask id="mask1_19_87" style="mask-type:luminance" maskUnits="userSpaceOnUse" x="0" y="0" width="21" height="21">
<path d="M20.5 0H0.5V20.0016H20.5V0Z" fill="white"/>
</mask>
<g mask="url(#mask1_19_87)">
<path d="M20.4998 4.17869V19.0987C20.4854 19.1097 20.4627 19.1179 20.458 19.132C20.2414 19.7768 19.7689 20.002 19.1186 20.0008C14.9199 19.9937 10.7211 19.9926 6.52221 19.9973C5.65421 19.9973 5.18751 19.5274 5.18751 18.6587C5.18751 16.1396 5.18843 13.6208 5.19026 11.1023C5.19026 10.9649 5.17264 10.9175 5.01486 10.925C3.94757 10.9747 2.99305 10.6638 2.14345 10.0143C0.502198 8.76143 0.00144476 6.33401 1.04719 4.55573C1.93555 3.04603 3.27455 2.31506 5.02738 2.35421C5.15071 2.35695 5.19495 2.33855 5.19065 2.20387C5.18047 1.87225 5.18634 1.54024 5.18791 1.20823C5.18603 0.906236 5.29433 0.613917 5.49251 0.38604C5.66204 0.185582 5.90243 0.109234 6.12481 0H16.2812C16.4335 0.059511 16.5416 0.175794 16.6536 0.287768C17.8119 1.44719 18.971 2.60596 20.1306 3.76407C20.2654 3.89143 20.3889 4.03015 20.4998 4.17869ZM12.8456 19.2158H19.2121C19.5829 19.2158 19.7184 19.0795 19.7184 18.7068C19.7184 14.0921 19.7197 9.47713 19.7223 4.86189C19.7223 4.71625 19.6886 4.6814 19.5426 4.68219C18.4749 4.68923 17.4072 4.6861 16.34 4.68571C15.941 4.68571 15.8126 4.55768 15.8126 4.1599C15.8126 3.08596 15.8102 2.01202 15.8153 0.938082C15.8153 0.812796 15.7867 0.776777 15.6587 0.777168C12.5861 0.781083 9.51342 0.782256 6.44077 0.78069C6.1209 0.78069 5.97369 0.928685 5.97095 1.24621C5.96821 1.59153 5.9823 1.93685 5.96546 2.28099C5.95685 2.45561 6.01245 2.52491 6.17649 2.57816C7.80013 3.10514 8.99543 4.66653 9.08744 6.3665C9.19433 8.33585 8.00607 10.0922 6.13813 10.7124C5.99718 10.7594 5.96742 10.8243 5.96781 10.9594C5.97147 13.5307 5.97238 16.1016 5.97055 18.6724C5.97055 19.0952 6.09232 19.2158 6.51868 19.2158H12.8456ZM4.40487 4.95116C4.40487 4.41086 4.39939 3.87056 4.40839 3.33027C4.41074 3.1858 4.3849 3.14312 4.23025 3.1674C2.31415 3.46769 0.980635 5.34973 1.33809 7.25956C1.65366 8.94936 3.11246 10.1642 4.81361 10.1541C6.51477 10.1439 7.95399 8.92078 8.26329 7.22471C8.29422 7.0544 8.25037 7.02465 8.08633 7.02582C7.02531 7.03365 5.96429 7.03052 4.90288 7.02935C4.5462 7.02935 4.40565 6.88879 4.40487 6.5329C4.40487 6.00591 4.40487 5.47854 4.40487 4.95116ZM6.73715 6.24866C7.095 6.24866 7.45285 6.25179 7.8107 6.24866C7.9673 6.2467 8.18734 6.31834 8.25742 6.22007C8.33573 6.10966 8.2308 5.91156 8.19282 5.75377C7.87451 4.43944 6.66589 3.34554 5.34216 3.16661C5.21218 3.14938 5.18203 3.18149 5.18282 3.31069C5.18882 4.24146 5.18882 5.17198 5.18282 6.10223C5.18282 6.21968 5.20748 6.2557 5.3312 6.25335C5.80142 6.24317 6.27007 6.24866 6.73872 6.24866H6.73715ZM16.5921 1.37619C16.5921 2.17842 16.596 2.97203 16.5886 3.76446C16.5886 3.89719 16.6379 3.90698 16.7452 3.90619C17.5063 3.90228 18.2678 3.90619 19.0289 3.90306C19.0614 3.90306 19.1072 3.92773 19.117 3.90032L16.5921 1.37619Z" fill="#CE9944"/>
<path d="M7.87181 17.4182C7.42979 17.3884 7.05589 17.1723 6.8566 16.7177C6.65732 16.2632 6.72897 15.8313 7.06019 15.4649C7.38476 15.107 7.79899 14.9911 8.26607 15.1372C8.38588 15.1763 8.45126 15.1513 8.53074 15.0632C8.93218 14.6195 9.33806 14.1793 9.74837 13.7426C9.82393 13.6643 9.82667 13.5997 9.79457 13.5038C9.70845 13.2669 9.70261 13.0082 9.77795 12.7677C9.8533 12.5271 10.0056 12.318 10.2115 12.1726C10.4113 12.0296 10.651 11.9533 10.8967 11.9546C11.1423 11.9559 11.3813 12.0346 11.5795 12.1796C11.7846 12.3266 11.9355 12.5372 12.0088 12.7786C12.082 13.0201 12.0736 13.2789 11.9847 13.5151C11.9456 13.6181 11.9503 13.687 12.0239 13.7763C12.3762 14.2018 12.7224 14.6337 13.0653 15.0683C13.1268 15.1466 13.1796 15.174 13.2775 15.1387C13.4611 15.0677 13.6624 15.0559 13.8531 15.1051C13.8866 15.1162 13.9228 15.1164 13.9565 15.1057C13.9902 15.0951 14.0196 15.074 14.0406 15.0456C14.891 14.1299 15.7433 13.2164 16.5976 12.3049C16.6642 12.2341 16.6559 12.1851 16.616 12.1056C16.342 11.5575 16.5056 10.9158 17.0001 10.5893C17.4801 10.2725 18.1402 10.3544 18.5114 10.7737C18.9166 11.2329 18.926 11.8786 18.5188 12.3374C18.2353 12.6569 17.8693 12.7838 17.4464 12.7098C17.4039 12.6985 17.359 12.6999 17.3173 12.7138C17.2755 12.7277 17.2388 12.7535 17.2115 12.7881C16.3747 13.6899 15.5358 14.5896 14.6948 15.4872C14.6228 15.5655 14.6114 15.6156 14.6643 15.7178C14.7834 15.9474 14.8224 16.2103 14.775 16.4646C14.7276 16.7189 14.5966 16.9501 14.4028 17.1214C13.9877 17.4777 13.4196 17.5168 12.9745 17.2205C12.5293 16.9241 12.3481 16.3662 12.5364 15.845C12.572 15.7476 12.565 15.6841 12.4972 15.6019C12.1451 15.1752 11.7982 14.7445 11.4566 14.3099C11.39 14.2257 11.3336 14.2007 11.2279 14.2382C10.9986 14.3206 10.7471 14.3163 10.5208 14.2261C10.4284 14.1905 10.3701 14.2132 10.3043 14.286C9.89323 14.7394 9.48213 15.1908 9.05968 15.6348C8.97903 15.7198 8.99273 15.7855 9.02327 15.8756C9.28128 16.6371 8.71828 17.4229 7.87181 17.4182ZM10.8932 13.5116C10.9943 13.5078 11.0902 13.4661 11.1618 13.3946C11.2335 13.3232 11.2755 13.2274 11.2796 13.1263C11.277 13.0253 11.2364 12.9289 11.166 12.8563C11.0956 12.7838 11.0004 12.7404 10.8994 12.7348C10.7949 12.7361 10.695 12.7781 10.621 12.8519C10.5469 12.9256 10.5045 13.0254 10.5028 13.1299C10.5079 13.2309 10.5509 13.3264 10.6233 13.3971C10.6956 13.4679 10.792 13.5088 10.8932 13.5116ZM8.30914 16.2436C8.30468 16.1426 8.26236 16.0471 8.19061 15.9759C8.11885 15.9047 8.02293 15.8632 7.92193 15.8595C7.82052 15.8624 7.7239 15.9033 7.65133 15.9742C7.57877 16.0451 7.53559 16.1407 7.53041 16.242C7.53224 16.3465 7.57475 16.4461 7.6489 16.5196C7.72304 16.5932 7.82297 16.6349 7.92741 16.6359C8.02913 16.6312 8.12528 16.5881 8.19647 16.5153C8.26767 16.4425 8.30863 16.3454 8.3111 16.2436H8.30914ZM13.6338 15.8595C13.5327 15.8607 13.4357 15.9 13.3623 15.9695C13.2888 16.039 13.2443 16.1337 13.2376 16.2346C13.2378 16.3357 13.2761 16.433 13.3446 16.5073C13.4132 16.5815 13.5072 16.6273 13.608 16.6355C13.8147 16.6473 14.0116 16.4605 14.014 16.2511C14.0114 16.15 13.9708 16.0536 13.9004 15.981C13.8299 15.9085 13.7348 15.8651 13.6338 15.8595ZM17.6461 11.949C17.7473 11.9465 17.8438 11.9059 17.9164 11.8354C17.9889 11.7649 18.0322 11.6695 18.0376 11.5685C18.0362 11.4674 17.9968 11.3706 17.9272 11.2972C17.8576 11.2239 17.763 11.1794 17.6622 11.1727C17.5576 11.173 17.4572 11.2141 17.3824 11.2872C17.3075 11.3603 17.2641 11.4596 17.2612 11.5642C17.2657 11.6648 17.3077 11.7601 17.379 11.8313C17.4502 11.9025 17.5455 11.9445 17.6461 11.949Z" fill="#CE9944"/>
<path d="M14.7963 7.0303C13.8339 7.0303 12.8712 7.0303 11.9088 7.0303C11.5635 7.0303 11.3548 6.76759 11.4762 6.49157C11.5545 6.31617 11.7005 6.24961 11.8845 6.25H17.679C17.9735 6.25353 18.1614 6.41013 18.1555 6.64818C18.1504 6.87957 17.9684 7.0303 17.6837 7.03069C16.7211 7.03148 15.7586 7.03135 14.7963 7.0303Z" fill="#CE9944"/>
<path d="M14.8058 7.81055H17.5958C17.6541 7.81055 17.7132 7.80742 17.7712 7.8129C17.9959 7.83443 18.156 8.00083 18.1525 8.20442C18.1494 8.40331 17.9959 8.56266 17.7802 8.58654C17.7281 8.59056 17.6758 8.59161 17.6236 8.58968H11.9074C11.6235 8.58537 11.4415 8.43542 11.4376 8.20364C11.4336 7.97186 11.6177 7.81212 11.8976 7.80859C12.028 7.80859 12.158 7.80859 12.2891 7.80859L14.8058 7.81055Z" fill="#CE9944"/>
<path d="M12.556 3.12477H10.6251C10.5407 3.13118 10.4559 3.12189 10.3749 3.09736C10.2034 3.03276 10.1106 2.90434 10.1133 2.7262C10.1165 2.55706 10.2081 2.43413 10.3714 2.37383C10.4523 2.34888 10.5371 2.33932 10.6215 2.34564H14.5222C14.5547 2.34564 14.5872 2.34564 14.6197 2.34564C14.8586 2.36091 15.0261 2.52104 15.0273 2.73364C15.0285 2.94623 14.8609 3.10911 14.6233 3.12516C14.5778 3.12829 14.532 3.12516 14.4866 3.12516L12.556 3.12477Z" fill="#CE9944"/>
<path d="M12.5709 4.68771H10.6207C10.5363 4.6938 10.4514 4.68397 10.3706 4.65874C10.2073 4.5961 10.1157 4.47316 10.1133 4.30403C10.111 4.12549 10.2042 3.99747 10.3756 3.93326C10.4568 3.90906 10.5417 3.89991 10.6262 3.90624H14.5073C14.5721 3.90386 14.637 3.9074 14.7012 3.91681C14.7918 3.93216 14.8741 3.97889 14.9337 4.04882C14.9933 4.11875 15.0265 4.20743 15.0273 4.29933C15.0251 4.39121 14.9908 4.47941 14.9301 4.54849C14.8695 4.61756 14.7865 4.66311 14.6957 4.67714C14.6308 4.68601 14.5653 4.68928 14.4999 4.68693L12.5709 4.68771Z" fill="#CE9944"/>
<path d="M10.2485 7.02626C10.1474 7.01906 10.0528 6.97397 9.98356 6.9C9.9143 6.82602 9.87553 6.72863 9.875 6.62731C9.88088 6.52279 9.92751 6.42475 10.0049 6.35425C10.0823 6.28375 10.1842 6.24642 10.2888 6.25027C10.3898 6.25957 10.4834 6.30681 10.5508 6.38246C10.6183 6.45811 10.6545 6.55653 10.6522 6.65784C10.6437 6.75882 10.5974 6.85286 10.5225 6.92117C10.4477 6.98948 10.3498 7.02701 10.2485 7.02626Z" fill="#CE9944"/>
<path d="M10.6549 8.19618C10.6538 8.29763 10.6144 8.39492 10.5445 8.46849C10.4746 8.54206 10.3795 8.58647 10.2783 8.59279C10.1738 8.59231 10.0737 8.55115 9.99915 8.47805C9.92459 8.40495 9.88145 8.30566 9.87891 8.20127C9.8831 8.10001 9.92541 8.00407 9.99737 7.93269C10.0693 7.86132 10.1656 7.81978 10.2669 7.81641C10.3674 7.8196 10.463 7.8604 10.5349 7.93072C10.6067 8.00105 10.6496 8.09578 10.6549 8.19618Z" fill="#CE9944"/>
<path d="M4.67903 9.37009C3.26368 9.32272 2.07307 8.10979 2.0625 6.70776C2.0625 6.52296 2.12045 6.37458 2.29193 6.29157C2.43327 6.22267 2.57148 6.24616 2.69402 6.34247C2.79777 6.42469 2.83419 6.53823 2.84397 6.66822C2.92776 7.78718 3.65481 8.51736 4.76007 8.59293C5.02317 8.61094 5.19779 8.78125 5.1833 9.00559C5.16921 9.24285 4.98011 9.38027 4.67903 9.37009Z" fill="#CE9944"/>
</g>
</g>
</g>
<defs>
<clipPath id="clip0_19_87">
<rect width="20" height="20" fill="white" transform="translate(0.5)"/>
</clipPath>
</defs>
</svg>
