<svg width="21" height="20" viewBox="0 0 21 20" fill="none" xmlns="http://www.w3.org/2000/svg">
<g clip-path="url(#clip0_19_75)">
<mask id="mask0_19_75" style="mask-type:luminance" maskUnits="userSpaceOnUse" x="0" y="0" width="21" height="20">
<path d="M20.5 0H0.5V19.9995H20.5V0Z" fill="white"/>
</mask>
<g mask="url(#mask0_19_75)">
<path d="M20.5008 6.05516C20.3682 6.25823 20.1797 6.33236 19.9417 6.30886C19.8373 6.29842 19.7329 6.31252 19.6285 6.30521C19.5329 6.29842 19.4948 6.34018 19.464 6.42684C19.3985 6.61683 19.3211 6.80252 19.2323 6.9828C19.1832 7.08042 19.2046 7.13106 19.2751 7.19579C19.3852 7.29707 19.4912 7.4046 19.5925 7.51319C19.7642 7.69851 19.782 7.92194 19.5883 8.08115C19.3476 8.27848 19.3147 8.51131 19.3163 8.79894C19.3267 10.7388 19.3221 12.6781 19.3215 14.618C19.3215 15.6819 18.6732 16.3282 17.6067 16.3282C15.6543 16.3282 13.7014 16.3282 11.749 16.3245C11.5866 16.3245 11.5402 16.3605 11.5485 16.5239C11.5631 16.8554 11.5579 17.188 11.5485 17.52C11.5459 17.6312 11.5798 17.6578 11.6884 17.6594C12.0455 17.6656 12.4052 17.6186 12.7596 17.6881C13.0724 17.748 13.3553 17.9128 13.5617 18.1553C13.768 18.3979 13.8855 18.7035 13.8945 19.0219C13.9002 19.204 13.8992 19.3873 13.8945 19.5689C13.8893 19.8404 13.7379 19.9986 13.4727 19.9991C11.0968 19.9991 8.72102 19.9991 6.34544 19.9991C6.08442 19.9991 5.92781 19.8425 5.92781 19.5872C5.92781 19.321 5.8991 19.0532 5.95443 18.789C6.01717 18.4704 6.18854 18.1833 6.4393 17.9769C6.69006 17.7705 7.00468 17.6576 7.32946 17.6573C7.603 17.6536 7.87655 17.6531 8.14957 17.6573C8.24092 17.6573 8.27277 17.6353 8.2712 17.5388C8.26598 17.1733 8.26181 16.8079 8.2712 16.4456C8.27538 16.301 8.19133 16.3277 8.11042 16.3277H5.25961C4.21799 16.3277 3.17654 16.3277 2.13526 16.3277C1.16325 16.3277 0.496616 15.6574 0.496094 14.6822C0.496094 11.1474 0.496094 7.61289 0.496094 4.07875C0.496094 3.08011 1.15907 2.42235 2.16293 2.42183C5.07273 2.42183 7.98235 2.42183 10.8918 2.42183C11.0265 2.42183 11.1439 2.43854 11.1408 2.2433C11.1408 2.16917 11.2061 2.106 11.2624 2.04962C11.6362 1.67794 12.0074 1.30312 12.3822 0.93248C12.5962 0.721058 12.8217 0.701743 13.0044 0.936657C13.2582 1.26293 13.4999 1.3334 13.8721 1.11362C14.167 0.939266 14.1973 0.976331 14.1853 0.615609C14.1774 0.365557 14.2009 0.140561 14.44 -0.00195312H16.3538C16.6038 0.102453 16.6534 0.305 16.6472 0.552442C16.6367 0.970066 16.6639 0.936134 17.0126 1.1319C17.3613 1.32766 17.5649 1.25405 17.7993 0.9685C18.0264 0.69078 18.231 0.710095 18.491 0.9685C18.832 1.30782 19.1721 1.64783 19.511 1.98855C19.7924 2.27096 19.7903 2.44062 19.5037 2.72826C19.4035 2.82954 19.261 2.91567 19.2156 3.03783C19.1634 3.17408 19.3069 3.30406 19.3607 3.43822C19.4144 3.57238 19.4129 3.76814 19.5387 3.82974C19.6645 3.89134 19.8316 3.85532 19.9803 3.84593C20.2199 3.83131 20.398 3.91118 20.4961 4.13879L20.5008 6.05516ZM11.5772 3.21845C11.5587 3.21272 11.5396 3.2087 11.5203 3.20644C8.36308 3.20644 5.20584 3.20644 2.04861 3.20644C1.94714 3.20643 1.84668 3.22662 1.7531 3.26584C1.65951 3.30506 1.57467 3.36252 1.50353 3.43488C1.43239 3.50724 1.37637 3.59303 1.33874 3.68727C1.30111 3.7815 1.28262 3.88229 1.28436 3.98374C1.2807 6.34645 1.28436 8.70968 1.28018 11.0729C1.28018 11.1773 1.30315 11.2175 1.41747 11.2144C1.73591 11.2065 2.0554 11.2144 2.37436 11.2144C2.99244 11.2144 3.61104 11.2112 4.22965 11.2144C4.55331 11.2144 4.74333 11.4984 4.6123 11.7709C4.52773 11.9463 4.37686 11.9959 4.19467 11.9953C3.27694 11.9927 2.35922 11.9953 1.44097 11.9912C1.3162 11.9912 1.27392 12.0193 1.28018 12.1478C1.29323 12.3882 1.29323 12.6293 1.28018 12.8697C1.27026 13.0404 1.3115 13.0937 1.49578 13.0932C6.2024 13.0872 10.9088 13.0857 15.6151 13.0885C15.6741 13.0885 15.7326 13.0885 15.791 13.0885C16.0249 13.0999 16.1967 13.2649 16.1972 13.4779C16.1977 13.6909 16.0275 13.8579 15.7942 13.8679C15.7289 13.871 15.6642 13.8679 15.5989 13.8679H1.5365C1.49095 13.8707 1.44527 13.8707 1.39973 13.8679C1.30367 13.8553 1.27809 13.8966 1.2807 13.9884C1.28645 14.203 1.2807 14.4181 1.2807 14.6331C1.2807 15.2429 1.58139 15.5457 2.18747 15.5457H17.6155C18.2373 15.5457 18.5395 15.245 18.5395 14.6274C18.5395 12.8765 18.5395 11.1255 18.5395 9.37422V9.15549C18.4769 9.2077 18.4445 9.23693 18.4111 9.2646C18.2216 9.4212 18.0342 9.41337 17.852 9.24528C17.7998 9.19725 17.7502 9.14453 17.6996 9.09389C17.448 8.8428 17.449 8.84436 17.13 8.98061C17.0057 9.03611 16.8783 9.08457 16.7484 9.12574C16.7327 9.12796 16.7176 9.1333 16.704 9.14144C16.6903 9.14958 16.6784 9.16035 16.669 9.17314C16.6596 9.18592 16.6528 9.20045 16.649 9.21589C16.6453 9.23132 16.6447 9.24735 16.6472 9.26303C16.6508 9.42538 16.6534 9.58878 16.6472 9.75113C16.6357 10.0043 16.4906 10.1515 16.2405 10.1536C15.6941 10.1585 15.1474 10.1585 14.6003 10.1536C14.3596 10.1536 14.2114 10.0069 14.1978 9.76783C14.1884 9.60548 14.1895 9.44209 14.1978 9.27973C14.2015 9.18525 14.166 9.14505 14.0777 9.11373C13.8888 9.04639 13.7029 8.96913 13.5213 8.88456C13.4393 8.84593 13.386 8.84227 13.3218 8.91275C13.2174 9.02864 13.1062 9.13931 12.9919 9.24528C12.805 9.41964 12.5999 9.42538 12.4177 9.24946C12.0223 8.86246 11.6312 8.47128 11.2442 8.07593C11.075 7.9021 11.0813 7.69903 11.2442 7.51841C11.3163 7.43451 11.3947 7.35616 11.4786 7.28402C11.6252 7.16499 11.6801 7.0538 11.5626 6.86639C11.4613 6.70508 11.4608 6.45347 11.3298 6.34436C11.1878 6.22586 10.943 6.3193 10.7435 6.30469C10.4909 6.28589 10.3463 6.14495 10.3442 5.89281C10.34 5.34607 10.34 4.79933 10.3442 4.25259C10.3442 4.01298 10.4924 3.86576 10.7331 3.85271C10.8954 3.84436 11.0583 3.84958 11.2212 3.8501C11.2885 3.8501 11.3407 3.8501 11.3684 3.76292C11.4295 3.58021 11.5062 3.40168 11.5772 3.21845ZM13.3521 7.96057C13.4432 7.96163 13.5316 7.99141 13.6048 8.04566C13.9101 8.23158 14.2416 8.37044 14.5883 8.45754C14.8947 8.5348 14.9741 8.64495 14.9767 8.97069C14.9798 9.37735 14.9798 9.37996 15.3912 9.37631C15.5478 9.37631 15.7493 9.44209 15.8417 9.3476C15.9179 9.26982 15.8657 9.06622 15.8704 8.91797C15.8787 8.64651 15.9644 8.53689 16.2358 8.46693C16.5948 8.37595 16.9385 8.23278 17.2559 8.042C17.4762 7.90888 17.6328 7.93081 17.817 8.1083C17.9246 8.21271 18.029 8.3975 18.1386 8.40064C18.2686 8.40377 18.3652 8.2101 18.4769 8.10256C18.5745 8.00807 18.7337 7.9115 18.7416 7.80657C18.7504 7.68441 18.5719 7.59775 18.4753 7.49909C18.2712 7.28402 18.2477 7.14254 18.3986 6.89145C18.5791 6.59023 18.7148 6.26439 18.8016 5.92413C18.8841 5.60621 18.9853 5.52843 19.3059 5.5253C19.7188 5.52112 19.7198 5.52112 19.7183 5.09723C19.7183 4.94845 19.7652 4.75583 19.6911 4.66343C19.617 4.57103 19.4124 4.63837 19.2651 4.63263C18.9932 4.62166 18.8825 4.53605 18.8136 4.26721C18.7226 3.90822 18.5795 3.56454 18.3887 3.24716C18.2493 3.01694 18.2722 2.86973 18.4633 2.67293C18.563 2.56852 18.7389 2.4709 18.7426 2.36493C18.7468 2.23912 18.5609 2.14777 18.4581 2.04075C18.3552 1.93373 18.2576 1.77086 18.148 1.76303C18.0222 1.75415 17.9329 1.94156 17.8264 2.04127C17.6296 2.22659 17.4798 2.25008 17.2522 2.1107C16.9404 1.92349 16.6029 1.7828 16.2504 1.69308C15.9581 1.61738 15.8761 1.51245 15.8709 1.21438C15.8709 1.07813 15.92 0.895415 15.8511 0.816589C15.7696 0.723146 15.5817 0.788922 15.4408 0.786312C15.2998 0.783702 15.0978 0.738807 15.0075 0.813457C14.9172 0.888107 14.984 1.09274 14.9777 1.24048C14.9668 1.50984 14.8801 1.62156 14.6123 1.69099C14.2598 1.78064 13.9223 1.92133 13.6105 2.10861C13.362 2.25844 13.218 2.23547 13.0044 2.02561C12.9068 1.93008 12.7998 1.75207 12.7132 1.76094C12.5999 1.77347 12.5007 1.93217 12.3999 2.03187C12.2992 2.13158 12.1233 2.24069 12.1097 2.3571C12.0961 2.47351 12.2919 2.56591 12.3879 2.67815C12.3924 2.68293 12.3971 2.68747 12.402 2.69172C12.5712 2.86921 12.5973 3.03052 12.4715 3.23724C12.2732 3.56537 12.1252 3.92134 12.0324 4.29331C11.9708 4.53501 11.8534 4.62166 11.6018 4.63524C11.4483 4.64307 11.2363 4.56581 11.1575 4.66656C11.0787 4.76731 11.1304 4.96464 11.1293 5.11968C11.1293 5.52478 11.1293 5.52477 11.5417 5.52791C11.5678 5.52791 11.5939 5.52791 11.62 5.52791C11.8555 5.54044 11.9734 5.63231 12.0329 5.86514C12.1257 6.23736 12.2743 6.5934 12.4735 6.9212C12.591 7.11227 12.568 7.27775 12.4328 7.43958C12.3248 7.56956 12.0893 7.66301 12.1196 7.81648C12.1462 7.96004 12.3436 8.07176 12.4673 8.196C12.7058 8.43613 12.7058 8.43509 12.9481 8.19339C13.0593 8.0775 13.1637 7.94386 13.3511 7.95848L13.3521 7.96057ZM9.9015 19.2207C10.9163 19.2207 11.9312 19.2166 12.946 19.2254C13.1026 19.2254 13.1303 19.179 13.1188 19.0406C13.0911 18.7107 12.8411 18.444 12.5116 18.4429C10.7809 18.4377 9.05042 18.4377 7.32006 18.4429C6.98074 18.4429 6.7286 18.718 6.70877 19.0547C6.70094 19.1926 6.74009 19.2254 6.87686 19.2249C7.88386 19.216 8.89242 19.2187 9.90046 19.2187L9.9015 19.2207ZM9.92343 16.3303C9.67598 16.3303 9.42906 16.3355 9.18214 16.3303C9.07774 16.3271 9.05111 16.3595 9.05268 16.4603C9.05894 16.8177 9.05894 17.1754 9.05268 17.5335C9.05268 17.6379 9.08087 17.6641 9.18267 17.663C9.66989 17.6578 10.1571 17.6578 10.6443 17.663C10.7461 17.663 10.7759 17.6353 10.7738 17.5325C10.7681 17.1749 10.7675 16.8173 10.7738 16.4597C10.7738 16.3553 10.743 16.3277 10.6428 16.3303C10.4037 16.3329 10.163 16.3282 9.92238 16.3282L9.92343 16.3303Z" fill="#CE9944"/>
<path d="M8.90962 10.0113C8.741 10.017 8.61989 9.90689 8.48521 9.83328C8.27639 9.71843 7.9496 9.89697 7.94699 10.1308C7.94073 10.7322 7.87443 10.798 7.27097 10.798C6.95775 10.798 6.64453 10.798 6.33131 10.798C5.97685 10.798 5.84739 10.6654 5.8453 10.3172V10.2582C5.8453 9.98989 5.74768 9.85886 5.49189 9.7722C5.47032 9.76617 5.44762 9.76544 5.42572 9.77007C5.40381 9.77471 5.38335 9.78457 5.36608 9.79883C5.28777 9.84442 5.2086 9.88897 5.12856 9.93247C4.85919 10.0812 4.66604 10.0296 4.50943 9.76229C4.30897 9.42088 4.11077 9.07825 3.91484 8.73441C3.75823 8.46295 3.81356 8.27502 4.08241 8.11424C4.10486 8.10066 4.12783 8.08814 4.15027 8.07561C4.40241 7.93101 4.45148 7.82086 4.40294 7.52956C4.4005 7.51086 4.39345 7.49305 4.38243 7.47774C4.3714 7.46243 4.35674 7.4501 4.33977 7.44186L4.18838 7.35364C3.7765 7.11925 3.73787 6.98143 3.97122 6.57634C4.14975 6.2673 4.32568 5.95669 4.5063 5.64869C4.66969 5.37045 4.86023 5.3219 5.14161 5.47903L5.20895 5.51766C5.43969 5.64921 5.60465 5.62885 5.80406 5.4545C5.86566 5.40229 5.84739 5.33443 5.84374 5.27387C5.80772 4.69964 5.97163 4.58323 6.51768 4.6062C6.84238 4.62029 7.16813 4.6062 7.49335 4.60933C7.78934 4.60933 7.9329 4.75341 7.94438 5.05097C7.94438 5.08333 7.94438 5.11622 7.94438 5.14859C7.94438 5.42265 8.03783 5.54533 8.29884 5.63564C8.36879 5.65965 8.40951 5.61737 8.45545 5.58814C8.9472 5.26552 9.12052 5.32347 9.39824 5.84497C9.55067 6.13105 9.72242 6.40668 9.88007 6.69014C10.0194 6.94072 9.96516 7.13334 9.72346 7.28421C9.69579 7.30144 9.66813 7.31762 9.63994 7.33641C9.40346 7.47319 9.33716 7.62249 9.38988 7.8835C9.40555 7.96233 9.47184 7.97799 9.52561 8.00931C10.0476 8.31731 10.0675 8.40135 9.7647 8.92652C9.59922 9.21311 9.43269 9.50075 9.26877 9.7863C9.18786 9.92307 9.07719 10.0118 8.90962 10.0113ZM8.72064 9.06381C8.77911 9.08104 8.78955 9.04293 8.80521 9.01839C8.83511 8.961 8.86805 8.90524 8.90387 8.85134C9.02864 8.69473 9.03595 8.58354 8.81983 8.49741C8.73777 8.47035 8.66824 8.41457 8.62403 8.34033C8.57981 8.2661 8.56388 8.1784 8.57917 8.09336C8.61702 7.82934 8.61702 7.56128 8.57917 7.29726C8.55829 7.14065 8.63138 7.02267 8.76188 6.9355C9.0229 6.76218 9.00933 6.7674 8.87308 6.49125C8.78851 6.32054 8.70811 6.3242 8.57395 6.41973C8.39751 6.54606 8.21323 6.56381 8.03783 6.41503C7.85961 6.26285 7.6551 6.1445 7.43436 6.06579C7.25374 6.00106 7.17335 5.86638 7.16551 5.67793C7.15351 5.3882 7.1509 5.3882 6.86535 5.3882C6.8459 5.39002 6.82633 5.39002 6.80688 5.3882C6.6628 5.3621 6.62052 5.41534 6.62574 5.56412C6.6367 5.89718 6.57353 5.97548 6.26397 6.10338C6.08348 6.1772 5.91576 6.27903 5.767 6.40511C5.61039 6.53823 5.44595 6.55233 5.26376 6.45053C5.02363 6.31637 5.03355 6.32837 4.87642 6.56172C4.76679 6.72564 4.77201 6.80916 4.95994 6.90104C5.19903 7.01745 5.23766 7.14013 5.20007 7.41315C5.16882 7.61948 5.17182 7.82954 5.20895 8.03489C5.24601 8.23169 5.17397 8.37525 5.00849 8.48122C4.76522 8.63783 4.76627 8.63783 4.91557 8.89885C4.9188 8.90447 4.92143 8.91042 4.9234 8.9166C4.98291 9.08521 5.06957 9.08208 5.21104 8.99073C5.45274 8.83412 5.58429 8.85187 5.80928 9.03405C5.96546 9.16052 6.14198 9.25955 6.33131 9.32691C6.53595 9.4 6.62574 9.54616 6.62835 9.75811C6.632 10.0155 6.63461 10.0155 6.90085 10.0155C6.90745 10.0149 6.91408 10.0149 6.92068 10.0155C7.10966 10.0484 7.19266 9.98832 7.1676 9.77951C7.14046 9.55191 7.24904 9.39686 7.47299 9.32117C7.67578 9.24984 7.86294 9.14013 8.02425 8.99803C8.18086 8.86283 8.35105 8.855 8.52854 8.95679L8.72064 9.06381Z" fill="#CE9944"/>
<path d="M17.3596 13.8678C17.3077 13.8671 17.2565 13.856 17.2091 13.8349C17.1616 13.8139 17.119 13.7835 17.0836 13.7456C17.0482 13.7076 17.0209 13.6629 17.0033 13.6141C16.9857 13.5653 16.9781 13.5135 16.9811 13.4617C16.9852 13.3603 17.0286 13.2646 17.1022 13.1948C17.1758 13.1249 17.2738 13.0866 17.3752 13.0879C17.4767 13.0923 17.5727 13.1349 17.644 13.2072C17.7153 13.2794 17.7568 13.3759 17.76 13.4774C17.7585 13.5822 17.7155 13.6821 17.6404 13.7553C17.5654 13.8285 17.4644 13.869 17.3596 13.8678Z" fill="#CE9944"/>
<path d="M10.3029 14.6401C10.303 14.7448 10.2618 14.8453 10.1881 14.9197C10.1145 14.9941 10.0145 15.0364 9.90979 15.0374C9.80838 15.0361 9.71144 14.9954 9.63938 14.9241C9.56733 14.8527 9.52578 14.7561 9.52349 14.6547C9.52187 14.5533 9.55974 14.4552 9.6291 14.3812C9.69845 14.3072 9.79386 14.263 9.89517 14.258C9.99987 14.2548 10.1016 14.2932 10.178 14.3648C10.2544 14.4364 10.2993 14.5354 10.3029 14.6401Z" fill="#CE9944"/>
<path d="M6.20133 11.5928C6.20164 11.6942 6.16316 11.7919 6.09376 11.8658C6.02436 11.9398 5.92931 11.9844 5.82807 11.9906C5.77625 11.9926 5.72454 11.9843 5.67596 11.9661C5.62737 11.948 5.58289 11.9203 5.54509 11.8848C5.50729 11.8493 5.47694 11.8066 5.4558 11.7592C5.43465 11.7119 5.42314 11.6608 5.42193 11.6089C5.42017 11.5076 5.45782 11.4094 5.52695 11.3352C5.59608 11.261 5.69131 11.2166 5.79258 11.2112C5.89736 11.2076 5.99926 11.2458 6.0759 11.3174C6.15254 11.3889 6.19765 11.488 6.20133 11.5928Z" fill="#CE9944"/>
<path d="M17.8434 5.07651C17.8412 5.71703 17.5862 6.33078 17.1339 6.78428C16.6816 7.23779 16.0685 7.49436 15.428 7.49821C14.7837 7.49766 14.1661 7.24132 13.7108 6.78554C13.2555 6.32977 12.9999 5.71186 13 5.06764C13.0045 4.42691 13.2619 3.81388 13.7161 3.36193C14.1703 2.90998 14.7846 2.65566 15.4253 2.6543C16.0664 2.65732 16.6804 2.91363 17.1333 3.36734C17.5862 3.82106 17.8415 4.43542 17.8434 5.07651ZM17.0603 5.07651C17.0594 4.6427 16.887 4.22685 16.5807 3.91961C16.2745 3.61236 15.8592 3.43864 15.4253 3.4363C14.9917 3.43614 14.5756 3.60725 14.2676 3.91238C13.9595 4.21751 13.7844 4.63197 13.7804 5.06555C13.7795 5.282 13.8214 5.49649 13.9036 5.69672C13.9858 5.89695 14.1068 6.07897 14.2595 6.23233C14.4122 6.3857 14.5938 6.5074 14.7937 6.59043C14.9935 6.67347 15.2079 6.71621 15.4243 6.71621C15.8581 6.71429 16.2736 6.54106 16.5803 6.23426C16.887 5.92745 17.0601 5.5119 17.0619 5.07808L17.0603 5.07651Z" fill="#CE9944"/>
<path d="M6.89052 8.09137C6.84033 8.09178 6.79056 8.08224 6.74408 8.06328C6.6976 8.04433 6.65535 8.01635 6.61976 7.98096C6.58417 7.94556 6.55596 7.90346 6.53675 7.85709C6.51755 7.81072 6.50773 7.761 6.50787 7.71081C6.50697 7.659 6.51637 7.60753 6.53551 7.55938C6.55465 7.51123 6.58316 7.46735 6.61939 7.4303C6.65561 7.39325 6.69883 7.36376 6.74653 7.34354C6.79424 7.32332 6.84549 7.31277 6.89731 7.3125C6.99862 7.31597 7.09489 7.35759 7.16682 7.42904C7.23874 7.50048 7.28102 7.59646 7.28517 7.69776C7.28559 7.74965 7.27566 7.80111 7.25596 7.84912C7.23627 7.89714 7.2072 7.94074 7.17045 7.97739C7.13371 8.01403 7.09003 8.04299 7.04196 8.06256C6.9939 8.08213 6.94241 8.09192 6.89052 8.09137Z" fill="#CE9944"/>
</g>
</g>
<defs>
<clipPath id="clip0_19_75">
<rect width="20" height="20" fill="white" transform="translate(0.5)"/>
</clipPath>
</defs>
</svg>
