<svg width="25" height="24" viewBox="0 0 25 24" fill="none" xmlns="http://www.w3.org/2000/svg">
<path fill-rule="evenodd" clip-rule="evenodd" d="M18.3484 6.77817C18.3484 6.2091 18.3491 5.79939 18.3766 5.47923C18.4046 5.15223 18.4539 5.03228 18.4773 4.99327C18.4833 4.9832 18.4857 4.98146 18.4889 4.97916C18.4954 4.97441 18.5233 4.95559 18.5929 4.93411C18.7487 4.88601 19.0197 4.85039 19.4984 4.85039C19.9772 4.85039 20.2481 4.88601 20.404 4.93411C20.4736 4.95559 20.501 4.97405 20.5075 4.9788C20.5107 4.9811 20.5135 4.9832 20.5196 4.99327C20.543 5.03228 20.5923 5.15223 20.6203 5.47923C20.6477 5.79939 20.6484 6.2091 20.6484 6.77817V6.79123V6.80438V6.81762V6.83094V6.84435V6.85784V6.87141V6.88507V6.89882V6.91264V6.92655V6.94055V6.95462V6.96878V6.98302V6.99734V7.01174V7.02622V7.04078V7.05543V7.07015V7.08495V7.09983V7.11479V7.12983V7.14495V7.16014V7.17541V7.19076V7.20618V7.22168V7.23726V7.25291V7.26864V7.28444V7.30032V7.31627V7.3323V7.3484V7.36457V7.38082V7.39714V7.41353V7.42999V7.44652V7.46313V7.4798V7.49655V7.51337V7.53026V7.54721V7.56424V7.58133V7.5985V7.61573V7.63303V7.6504V7.66783V7.68533V7.7029V7.72053V7.73823V7.756V7.77383V7.79172V7.80968V7.82771V7.84579V7.86395V7.88216V7.90044V7.91878V7.93718V7.95564V7.97417V7.99275V8.0114V8.03011V8.04888V8.06771V8.08659V8.10554V8.12454V8.14361V8.16273V8.18191V8.20114V8.22044V8.23979V8.25919V8.27866V8.29818V8.31775V8.33738V8.35706V8.3768V8.39659V8.41644V8.43634V8.45629V8.47629V8.49635V8.51646V8.53662V8.55684V8.5771V8.59741V8.61778V8.63819V8.65866V8.67917V8.69973V8.72034V8.741V8.76171V8.78246V8.80327V8.82411V8.84501V8.86595V8.88694V8.90797V8.92905V8.95018V8.97134V8.99256V9.01381V9.03511V9.05646V9.07784V9.09927V9.12074V9.14225V9.16381V9.1854V9.20704V9.22872V9.25043V9.27219V9.29399V9.31582V9.3377V9.35961V9.38156V9.40355V9.42558V9.44764V9.46974V9.49188V9.51405V9.53626V9.5585V9.58078V9.6031V9.62545V9.64783V9.67025V9.6927V9.71518V9.73769V9.76024V9.78282V9.80544V9.82808V9.85075V9.87346V9.89619V9.91896V9.94176V9.96458V9.98743V10.0103V10.0332V10.0562V10.0791V10.1021V10.1251V10.1482V10.1713V10.1944V10.2175V10.2406V10.2638V10.287V10.3103V10.3335V10.3568V10.3801V10.4034V10.4267V10.4501V10.4735V10.4969V10.5203V10.5438V10.5672V10.5907V10.6142V10.6378V10.6613V10.6849V10.7085V10.7321V10.7557V10.7793V10.803V10.8267V10.8504V10.8741V10.8978V10.9215V10.9453V10.9691V10.9928V11.0166V11.0405V11.0643V11.0881V11.112V11.1358V11.1597V11.1836V11.2075V11.2314V11.2553V11.2793V11.3032V11.3271V11.3511V11.3751V11.3991V11.423V11.447V11.471V11.4951V11.5191V11.5431V11.5671V11.5912V11.6152V11.6393V11.6633V11.6874V11.7114V11.7355V11.7596V11.7836V11.8077V11.8318V11.8559V11.88V11.904V11.9281V11.9522V11.9763V12.0004V12.0245V12.0486V12.0727V12.0967V12.1208V12.1449V12.169V12.1931V12.2171V12.2412V12.2653V12.2894V12.3134V12.3375V12.3615V12.3856V12.4096V12.4337V12.4577V12.4817V12.5057V12.5297V12.5537V12.5777V12.6017V12.6257V12.6497V12.6736V12.6976V12.7215V12.7455V12.7694V12.7933V12.8172V12.8411V12.865V12.8888V12.9127V12.9365V12.9603V12.9841V13.0079V13.0317V13.0555V13.0792V13.103V13.1267V13.1504V13.1741V13.1978V13.2214V13.2451V13.2687V13.2923V13.3159V13.3395V13.363V13.3865V13.4101V13.4335V13.457V13.4805V13.5039V13.5273V13.5507V13.574V13.5974V13.6207V13.644V13.6673V13.6905V13.7138V13.737V13.7601V13.7833V13.8064V13.8295V13.8526V13.8756V13.8987V13.9216V13.9446V13.9676V13.9905V14.0133V14.0362V14.059V14.0818V14.1046V14.1273V14.15V14.1727V14.1953V14.218V14.2405V14.2631V14.2856V14.3081V14.3305V14.3529V14.3753V14.3977V14.42V14.4423V14.4645V14.4867V14.5089V14.531V14.5531V14.5752V14.5972V14.6192V14.6412V14.6631V14.685V14.7068V14.7286V14.7503V14.7721V14.7937V14.8154V14.837V14.8585V14.88V14.9015V14.9229V14.9443V14.9657V14.987V15.0082V15.0294V15.0506V15.0717V15.0928V15.1138V15.1348V15.1558V15.1767V15.1975V15.2183V15.2391V15.2598V15.2804V15.301V15.3216V15.3421V15.3626V15.383V15.4034V15.4237V15.4439V15.4642V15.4843V15.5044V15.5245V15.5445V15.5644V15.5843V15.6042V15.624V15.6437V15.6634V15.683V15.7026V15.7221V15.7416V15.761V15.7803V15.7996V15.8189V15.8381V15.8572V15.8762V15.8952V15.9142V15.9331V15.9519V15.9707V15.9894V16.008V16.0266V16.0451V16.0636V16.082V16.1003V16.1186V16.1368V16.155V16.1731V16.1911V16.2091V16.227V16.2448V16.2625V16.2802V16.2979V16.3154V16.3329V16.3504V16.3678V16.385V16.4023V16.4194V16.4365V16.4536V16.4705V16.4874V16.5042V16.521V16.5377V16.5543V16.5708V16.5873V16.6036V16.62V16.6362V16.6524V16.6685V16.6845V16.7005V16.7163V16.7321V16.7479V16.7635V16.7791V16.7946V16.81V16.8254V16.8406V16.8558V16.8709V16.886V16.9009V16.9158V16.9306V16.9454V16.96V16.9746V16.989V17.0034V17.0178V17.032V17.0462V17.0602V17.0742V17.0881V17.102V17.1157V17.1294V17.1429V17.1564V17.1698V17.1832V17.1964V17.2095V17.2226C20.6484 17.8948 20.6103 18.3501 20.5474 18.659C20.4842 18.9693 20.4107 19.0569 20.3982 19.0702C20.3937 19.075 20.3896 19.0788 20.3766 19.0849C20.3596 19.0929 20.3225 19.1068 20.25 19.1193C20.0844 19.1478 19.8671 19.1504 19.4984 19.1504C19.1241 19.1504 18.9041 19.1478 18.7372 19.1192C18.6641 19.1067 18.6274 19.0928 18.6114 19.0852C18.5993 19.0795 18.5964 19.0765 18.593 19.0728C18.582 19.061 18.5093 18.9746 18.4471 18.6625C18.3854 18.3524 18.3484 17.896 18.3484 17.2226V6.77817ZM19.4984 3.15039C18.5321 3.15039 17.5392 3.25253 17.0196 4.11863C16.793 4.49628 16.7173 4.93188 16.6828 5.33405C16.6484 5.73515 16.6484 6.21711 16.6484 6.7468V6.77817V17.2226C16.6484 17.9381 16.686 18.5234 16.7799 18.9946C16.8733 19.4637 17.0374 19.8981 17.3509 20.2335C17.6802 20.5859 18.0819 20.7317 18.4501 20.7948C18.776 20.8506 19.1398 20.8505 19.4581 20.8504H19.4984H19.5381C19.8517 20.8505 20.213 20.8506 20.5382 20.7947C20.9053 20.7315 21.3057 20.586 21.6354 20.2361C21.9501 19.9022 22.1174 19.469 22.2132 18.9981C22.3094 18.5257 22.3484 17.9394 22.3484 17.2226V17.2095V17.1964V17.1832V17.1698V17.1564V17.1429V17.1294V17.1157V17.102V17.0881V17.0742V17.0602V17.0462V17.032V17.0178V17.0034V16.989V16.9746V16.96V16.9454V16.9306V16.9158V16.9009V16.886V16.8709V16.8558V16.8406V16.8254V16.81V16.7946V16.7791V16.7635V16.7479V16.7321V16.7163V16.7005V16.6845V16.6685V16.6524V16.6362V16.62V16.6036V16.5873V16.5708V16.5543V16.5377V16.521V16.5042V16.4874V16.4705V16.4536V16.4365V16.4194V16.4023V16.385V16.3678V16.3504V16.3329V16.3154V16.2979V16.2802V16.2625V16.2448V16.227V16.2091V16.1911V16.1731V16.155V16.1368V16.1186V16.1003V16.082V16.0636V16.0451V16.0266V16.008V15.9894V15.9707V15.9519V15.9331V15.9142V15.8952V15.8762V15.8572V15.8381V15.8189V15.7996V15.7803V15.761V15.7416V15.7221V15.7026V15.683V15.6634V15.6437V15.624V15.6042V15.5843V15.5644V15.5445V15.5245V15.5044V15.4843V15.4642V15.4439V15.4237V15.4034V15.383V15.3626V15.3421V15.3216V15.301V15.2804V15.2598V15.2391V15.2183V15.1975V15.1767V15.1558V15.1348V15.1138V15.0928V15.0717V15.0506V15.0294V15.0082V14.987V14.9657V14.9443V14.9229V14.9015V14.88V14.8585V14.837V14.8154V14.7937V14.7721V14.7503V14.7286V14.7068V14.685V14.6631V14.6412V14.6192V14.5972V14.5752V14.5531V14.531V14.5089V14.4867V14.4645V14.4423V14.42V14.3977V14.3753V14.3529V14.3305V14.3081V14.2856V14.2631V14.2405V14.218V14.1953V14.1727V14.15V14.1273V14.1046V14.0818V14.059V14.0362V14.0133V13.9905V13.9676V13.9446V13.9216V13.8987V13.8756V13.8526V13.8295V13.8064V13.7833V13.7601V13.737V13.7138V13.6905V13.6673V13.644V13.6207V13.5974V13.574V13.5507V13.5273V13.5039V13.4805V13.457V13.4335V13.4101V13.3865V13.363V13.3395V13.3159V13.2923V13.2687V13.2451V13.2214V13.1978V13.1741V13.1504V13.1267V13.103V13.0792V13.0555V13.0317V13.0079V12.9841V12.9603V12.9365V12.9127V12.8888V12.865V12.8411V12.8172V12.7933V12.7694V12.7455V12.7215V12.6976V12.6736V12.6497V12.6257V12.6017V12.5777V12.5537V12.5297V12.5057V12.4817V12.4577V12.4337V12.4096V12.3856V12.3615V12.3375V12.3134V12.2894V12.2653V12.2412V12.2171V12.1931V12.169V12.1449V12.1208V12.0967V12.0727V12.0486V12.0245V12.0004V11.9763V11.9522V11.9281V11.904V11.88V11.8559V11.8318V11.8077V11.7836V11.7596V11.7355V11.7114V11.6874V11.6633V11.6393V11.6152V11.5912V11.5671V11.5431V11.5191V11.4951V11.471V11.447V11.423V11.3991V11.3751V11.3511V11.3271V11.3032V11.2793V11.2553V11.2314V11.2075V11.1836V11.1597V11.1358V11.112V11.0881V11.0643V11.0405V11.0166V10.9928V10.9691V10.9453V10.9215V10.8978V10.8741V10.8504V10.8267V10.803V10.7793V10.7557V10.7321V10.7085V10.6849V10.6613V10.6378V10.6142V10.5907V10.5672V10.5438V10.5203V10.4969V10.4735V10.4501V10.4267V10.4034V10.3801V10.3568V10.3335V10.3103V10.287V10.2638V10.2406V10.2175V10.1944V10.1713V10.1482V10.1251V10.1021V10.0791V10.0562V10.0332V10.0103V9.98743V9.96458V9.94176V9.91896V9.89619V9.87346V9.85075V9.82808V9.80544V9.78282V9.76024V9.73769V9.71518V9.6927V9.67025V9.64783V9.62545V9.6031V9.58078V9.5585V9.53626V9.51405V9.49188V9.46974V9.44764V9.42558V9.40355V9.38156V9.35961V9.3377V9.31582V9.29399V9.27219V9.25043V9.22872V9.20704V9.1854V9.16381V9.14225V9.12074V9.09927V9.07784V9.05646V9.03511V9.01381V8.99256V8.97134V8.95018V8.92905V8.90797V8.88694V8.86595V8.84501V8.82411V8.80327V8.78246V8.76171V8.741V8.72034V8.69973V8.67917V8.65866V8.63819V8.61778V8.59741V8.5771V8.55684V8.53662V8.51646V8.49635V8.47629V8.45629V8.43634V8.41644V8.39659V8.3768V8.35706V8.33738V8.31775V8.29818V8.27866V8.25919V8.23979V8.22044V8.20114V8.18191V8.16273V8.14361V8.12454V8.10554V8.08659V8.06771V8.04888V8.03011V8.0114V7.99275V7.97417V7.95564V7.93718V7.91878V7.90044V7.88216V7.86395V7.84579V7.82771V7.80968V7.79172V7.77383V7.756V7.73823V7.72053V7.7029V7.68533V7.66783V7.6504V7.63303V7.61573V7.5985V7.58133V7.56424V7.54721V7.53026V7.51337V7.49655V7.4798V7.46313V7.44652V7.42999V7.41353V7.39714V7.38082V7.36457V7.3484V7.3323V7.31627V7.30032V7.28444V7.26864V7.25291V7.23726V7.22168V7.20618V7.19076V7.17541V7.16014V7.14495V7.12983V7.11479V7.09983V7.08495V7.07015V7.05543V7.04078V7.02622V7.01174V6.99734V6.98302V6.96878V6.95462V6.94055V6.92655V6.91264V6.89882V6.88507V6.87141V6.85784V6.84435V6.83094V6.81762V6.80438V6.79123V6.77817V6.7468C22.3485 6.21711 22.3485 5.73515 22.3141 5.33405C22.2796 4.93188 22.2039 4.49628 21.9773 4.11863C21.4577 3.25253 20.4647 3.15039 19.4984 3.15039ZM11.3774 9.50035C11.3524 9.72579 11.3514 9.98828 11.3514 10.3337V14.0004V17.6671C11.3514 17.6752 11.3513 17.6834 11.3511 17.6915C11.3263 18.5511 11.4827 18.8416 11.5757 18.9412C11.6561 19.0273 11.858 19.1504 12.4982 19.1504C13.124 19.1504 13.3322 19.0288 13.4177 18.938C13.5129 18.8372 13.6727 18.5461 13.6453 17.6943C13.645 17.6852 13.6449 17.6761 13.6449 17.6671V14.0004V10.3337C13.6449 9.98828 13.6439 9.72579 13.6189 9.50035C13.5942 9.27817 13.5525 9.1645 13.5161 9.10385L13.5149 9.10179C13.4915 9.06207 13.3667 8.85039 12.4982 8.85039C11.6297 8.85039 11.5048 9.06207 11.4814 9.10179L11.4802 9.10385C11.4439 9.1645 11.4021 9.27817 11.3774 9.50035ZM10.0218 8.23026C10.5008 7.43067 11.3862 7.15039 12.4982 7.15039C13.6101 7.15039 14.4955 7.43067 14.9745 8.23026C15.1878 8.58628 15.2708 8.97261 15.3085 9.31293C15.345 9.64138 15.3449 9.99399 15.3449 10.309V10.3337V14.0004V17.6538C15.3745 18.6297 15.2247 19.4998 14.6545 20.1044C14.072 20.722 13.2524 20.8504 12.4982 20.8504C11.7366 20.8504 10.9138 20.7235 10.333 20.1012C9.76723 19.4951 9.62493 18.6239 9.65143 17.6551L9.65142 14.0004V10.3337L9.65141 10.309C9.65139 9.99398 9.65136 9.64138 9.68779 9.31293C9.72555 8.97261 9.80856 8.58628 10.0218 8.23026ZM4.37552 14.52C4.34931 14.7838 4.34844 15.1022 4.34844 15.5282V18.2947C4.34844 18.7752 4.46462 18.9067 4.52093 18.9543C4.61254 19.0318 4.86048 19.1504 5.49844 19.1504C6.12214 19.1504 6.37389 19.0331 6.47048 18.9521C6.53129 18.9011 6.64844 18.7669 6.64844 18.2947V18.2876V18.2805V18.2734V18.2663V18.2593V18.2522V18.2452V18.2382V18.2312V18.2242V18.2172V18.2103V18.2033V18.1964V18.1895V18.1826V18.1757V18.1688V18.162V18.1551V18.1483V18.1415V18.1347V18.1279V18.1211V18.1143V18.1076V18.1008V18.0941V18.0874V18.0807V18.074V18.0673V18.0607V18.054V18.0474V18.0408V18.0342V18.0276V18.021V18.0144V18.0079V18.0013V17.9948V17.9883V17.9818V17.9753V17.9688V17.9623V17.9559V17.9494V17.943V17.9366V17.9302V17.9238V17.9174V17.911V17.9047V17.8983V17.892V17.8857V17.8794V17.8731V17.8668V17.8605V17.8542V17.848V17.8417V17.8355V17.8293V17.8231V17.8169V17.8107V17.8045V17.7983V17.7922V17.786V17.7799V17.7738V17.7677V17.7616V17.7555V17.7494V17.7434V17.7373V17.7313V17.7252V17.7192V17.7132V17.7072V17.7012V17.6952V17.6893V17.6833V17.6773V17.6714V17.6655V17.6596V17.6536V17.6477V17.6419V17.636V17.6301V17.6242V17.6184V17.6126V17.6067V17.6009V17.5951V17.5893V17.5835V17.5777V17.5719V17.5662V17.5604V17.5547V17.5489V17.5432V17.5375V17.5318V17.5261V17.5204V17.5147V17.509V17.5034V17.4977V17.4921V17.4864V17.4808V17.4752V17.4696V17.464V17.4584V17.4528V17.4472V17.4416V17.4361V17.4305V17.425V17.4194V17.4139V17.4084V17.4029V17.3974V17.3919V17.3864V17.3809V17.3754V17.37V17.3645V17.3591V17.3536V17.3482V17.3428V17.3373V17.3319V17.3265V17.3211V17.3157V17.3103V17.305V17.2996V17.2942V17.2889V17.2835V17.2782V17.2729V17.2675V17.2622V17.2569V17.2516V17.2463V17.241V17.2357V17.2304V17.2252V17.2199V17.2146V17.2094V17.2041V17.1989V17.1937V17.1884V17.1832V17.178V17.1728V17.1676V17.1624V17.1572V17.152V17.1468V17.1416V17.1365V17.1313V17.1261V17.121V17.1158V17.1107V17.1056V17.1004V17.0953V17.0902V17.0851V17.08V17.0748V17.0697V17.0647V17.0596V17.0545V17.0494V17.0443V17.0393V17.0342V17.0291V17.0241V17.019V17.014V17.0089V17.0039V16.9989V16.9938V16.9888V16.9838V16.9788V16.9738V16.9688V16.9638V16.9588V16.9538V16.9488V16.9438V16.9388V16.9338V16.9288V16.9239V16.9189V16.9139V16.909V16.904V16.8991V16.8941V16.8892V16.8842V16.8793V16.8744V16.8694V16.8645V16.8596V16.8547V16.8497V16.8448V16.8399V16.835V16.8301V16.8252V16.8203V16.8154V16.8105V16.8056V16.8007V16.7958V16.7909V16.786V16.7812V16.7763V16.7714V16.7665V16.7617V16.7568V16.7519V16.7471V16.7422V16.7373V16.7325V16.7276V16.7228V16.7179V16.7131V16.7082V16.7034V16.6985V16.6937V16.6888V16.684V16.6791V16.6743V16.6695V16.6646V16.6598V16.655V16.6501V16.6453V16.6405V16.6356V16.6308V16.626V16.6212V16.6163V16.6115V16.6067V16.6019V16.597V16.5922V16.5874V16.5826V16.5778V16.5729V16.5681V16.5633V16.5585V16.5537V16.5489V16.544V16.5392V16.5344V16.5296V16.5248V16.52V16.5151V16.5103V16.5055V16.5007V16.4959V16.4911V16.4862V16.4814V16.4766V16.4718V16.467V16.4621V16.4573V16.4525V16.4477V16.4428V16.438V16.4332V16.4284V16.4235V16.4187V16.4139V16.4091V16.4042V16.3994V16.3946V16.3897V16.3849V16.3801V16.3752V16.3704V16.3655V16.3607V16.3558V16.351V16.3462V16.3413V16.3364V16.3316V16.3267V16.3219V16.317V16.3122V16.3073V16.3024V16.2976V16.2927V16.2878V16.2829V16.2781V16.2732V16.2683V16.2634V16.2585V16.2537V16.2488V16.2439V16.239V16.2341V16.2292V16.2243V16.2194V16.2144V16.2095V16.2046V16.1997V16.1948V16.1898V16.1849V16.18V16.175V16.1701V16.1652V16.1602V16.1553V16.1503V16.1454V16.1404V16.1354V16.1305V16.1255V16.1205V16.1155V16.1106V16.1056V16.1006V16.0956V16.0906V16.0856V16.0806V16.0756V16.0705V16.0655V16.0605V16.0555V16.0504V16.0454V16.0404V16.0353V16.0303V16.0252V16.0201V16.0151V16.01V16.0049V15.9999V15.9948V15.9897V15.9846V15.9795V15.9744V15.9693V15.9641V15.959V15.9539V15.9488V15.9436V15.9385V15.9333V15.9282V15.923V15.9179V15.9127V15.9075V15.9023V15.8971V15.8919V15.8867V15.8815V15.8763V15.8711V15.8659V15.8607V15.8554V15.8502V15.8449V15.8397V15.8344V15.8291V15.8239V15.8186V15.8133V15.808V15.8027V15.7974V15.7921V15.7868V15.7814V15.7761V15.7708V15.7654V15.7601V15.7547V15.7493V15.7439V15.7386V15.7332V15.7278V15.7224V15.717V15.7115V15.7061V15.7007V15.6952V15.6898V15.6843V15.6788V15.6734V15.6679V15.6624V15.6569V15.6514V15.6459V15.6404V15.6348V15.6293V15.6237V15.6182V15.6126V15.6071V15.6015V15.5959V15.5903V15.5847V15.5791V15.5735V15.5678V15.5622V15.5565V15.5509V15.5452V15.5433L6.64152 15.341C6.63046 15.0118 6.62182 14.7544 6.59726 14.5273C6.56777 14.2547 6.52336 14.1276 6.48803 14.0657L6.48735 14.0642C6.47835 14.0441 6.39177 13.8504 5.49844 13.8504C4.6012 13.8504 4.49671 14.0462 4.48234 14.0732L4.48123 14.0752C4.44676 14.1339 4.40169 14.2567 4.37552 14.52ZM3.01564 13.2138C3.50589 12.3797 4.42363 12.1504 5.49844 12.1504C6.57521 12.1504 7.48419 12.381 7.96467 13.2233C8.17196 13.5867 8.24887 13.9882 8.2874 14.3445C8.31942 14.6406 8.33049 14.9756 8.34136 15.305C8.3435 15.3696 8.34562 15.434 8.3479 15.4979L8.34819 15.5076L8.34844 15.5282V15.5339V15.5395V15.5452V15.5509V15.5565V15.5622V15.5678V15.5735V15.5791V15.5847V15.5903V15.5959V15.6015V15.6071V15.6126V15.6182V15.6237V15.6293V15.6348V15.6404V15.6459V15.6514V15.6569V15.6624V15.6679V15.6734V15.6788V15.6843V15.6898V15.6952V15.7007V15.7061V15.7115V15.717V15.7224V15.7278V15.7332V15.7386V15.7439V15.7493V15.7547V15.7601V15.7654V15.7708V15.7761V15.7814V15.7868V15.7921V15.7974V15.8027V15.808V15.8133V15.8186V15.8239V15.8291V15.8344V15.8397V15.8449V15.8502V15.8554V15.8607V15.8659V15.8711V15.8763V15.8815V15.8867V15.8919V15.8971V15.9023V15.9075V15.9127V15.9179V15.923V15.9282V15.9333V15.9385V15.9436V15.9488V15.9539V15.959V15.9641V15.9693V15.9744V15.9795V15.9846V15.9897V15.9948V15.9999V16.0049V16.01V16.0151V16.0201V16.0252V16.0303V16.0353V16.0404V16.0454V16.0504V16.0555V16.0605V16.0655V16.0705V16.0756V16.0806V16.0856V16.0906V16.0956V16.1006V16.1056V16.1106V16.1155V16.1205V16.1255V16.1305V16.1354V16.1404V16.1454V16.1503V16.1553V16.1602V16.1652V16.1701V16.175V16.18V16.1849V16.1898V16.1948V16.1997V16.2046V16.2095V16.2144V16.2194V16.2243V16.2292V16.2341V16.239V16.2439V16.2488V16.2537V16.2585V16.2634V16.2683V16.2732V16.2781V16.2829V16.2878V16.2927V16.2976V16.3024V16.3073V16.3122V16.317V16.3219V16.3267V16.3316V16.3364V16.3413V16.3462V16.351V16.3558V16.3607V16.3655V16.3704V16.3752V16.3801V16.3849V16.3897V16.3946V16.3994V16.4042V16.4091V16.4139V16.4187V16.4235V16.4284V16.4332V16.438V16.4428V16.4477V16.4525V16.4573V16.4621V16.467V16.4718V16.4766V16.4814V16.4862V16.4911V16.4959V16.5007V16.5055V16.5103V16.5151V16.52V16.5248V16.5296V16.5344V16.5392V16.544V16.5489V16.5537V16.5585V16.5633V16.5681V16.5729V16.5778V16.5826V16.5874V16.5922V16.597V16.6019V16.6067V16.6115V16.6163V16.6212V16.626V16.6308V16.6356V16.6405V16.6453V16.6501V16.655V16.6598V16.6646V16.6695V16.6743V16.6791V16.684V16.6888V16.6937V16.6985V16.7034V16.7082V16.7131V16.7179V16.7228V16.7276V16.7325V16.7373V16.7422V16.7471V16.7519V16.7568V16.7617V16.7665V16.7714V16.7763V16.7812V16.786V16.7909V16.7958V16.8007V16.8056V16.8105V16.8154V16.8203V16.8252V16.8301V16.835V16.8399V16.8448V16.8497V16.8547V16.8596V16.8645V16.8694V16.8744V16.8793V16.8842V16.8892V16.8941V16.8991V16.904V16.909V16.9139V16.9189V16.9239V16.9288V16.9338V16.9388V16.9438V16.9488V16.9538V16.9588V16.9638V16.9688V16.9738V16.9788V16.9838V16.9888V16.9938V16.9989V17.0039V17.0089V17.014V17.019V17.0241V17.0291V17.0342V17.0393V17.0443V17.0494V17.0545V17.0596V17.0647V17.0697V17.0748V17.08V17.0851V17.0902V17.0953V17.1004V17.1056V17.1107V17.1158V17.121V17.1261V17.1313V17.1365V17.1416V17.1468V17.152V17.1572V17.1624V17.1676V17.1728V17.178V17.1832V17.1884V17.1937V17.1989V17.2041V17.2094V17.2146V17.2199V17.2252V17.2304V17.2357V17.241V17.2463V17.2516V17.2569V17.2622V17.2675V17.2729V17.2782V17.2835V17.2889V17.2942V17.2996V17.305V17.3103V17.3157V17.3211V17.3265V17.3319V17.3373V17.3428V17.3482V17.3536V17.3591V17.3645V17.37V17.3754V17.3809V17.3864V17.3919V17.3974V17.4029V17.4084V17.4139V17.4194V17.425V17.4305V17.4361V17.4416V17.4472V17.4528V17.4584V17.464V17.4696V17.4752V17.4808V17.4864V17.4921V17.4977V17.5034V17.509V17.5147V17.5204V17.5261V17.5318V17.5375V17.5432V17.5489V17.5547V17.5604V17.5662V17.5719V17.5777V17.5835V17.5893V17.5951V17.6009V17.6067V17.6126V17.6184V17.6242V17.6301V17.636V17.6419V17.6477V17.6536V17.6596V17.6655V17.6714V17.6773V17.6833V17.6893V17.6952V17.7012V17.7072V17.7132V17.7192V17.7252V17.7313V17.7373V17.7434V17.7494V17.7555V17.7616V17.7677V17.7738V17.7799V17.786V17.7922V17.7983V17.8045V17.8107V17.8169V17.8231V17.8293V17.8355V17.8417V17.848V17.8542V17.8605V17.8668V17.8731V17.8794V17.8857V17.892V17.8983V17.9047V17.911V17.9174V17.9238V17.9302V17.9366V17.943V17.9494V17.9559V17.9623V17.9688V17.9753V17.9818V17.9883V17.9948V18.0013V18.0079V18.0144V18.021V18.0276V18.0342V18.0408V18.0474V18.054V18.0607V18.0673V18.074V18.0807V18.0874V18.0941V18.1008V18.1076V18.1143V18.1211V18.1279V18.1347V18.1415V18.1483V18.1551V18.162V18.1688V18.1757V18.1826V18.1895V18.1964V18.2033V18.2103V18.2172V18.2242V18.2312V18.2382V18.2452V18.2522V18.2593V18.2663V18.2734V18.2805V18.2876V18.2947C8.34844 19.0378 8.15673 19.7564 7.56311 20.2544C7.00527 20.7224 6.25702 20.8504 5.49844 20.8504C4.73242 20.8504 3.98037 20.7237 3.42297 20.2522C2.83028 19.7508 2.64844 19.0294 2.64844 18.2947V15.5282V15.5007C2.64842 15.109 2.6484 14.7086 2.68385 14.3519C2.72018 13.9863 2.80011 13.5805 3.01564 13.2138Z" fill="#CE9944"/>
</svg>
