<svg width="25" height="24" viewBox="0 0 25 24" fill="none" xmlns="http://www.w3.org/2000/svg">
<path d="M11.0114 3.66587C11.199 3.45637 11.4287 3.28878 11.6854 3.17404C11.9422 3.0593 12.2202 3 12.5014 3C12.7826 3 13.0607 3.0593 13.3174 3.17404C13.5742 3.28878 13.8038 3.45637 13.9914 3.66587L14.6914 4.44787C14.8915 4.67137 15.1393 4.847 15.4164 4.96177C15.6935 5.07653 15.9929 5.12749 16.2924 5.11087L17.3424 5.05287C17.6233 5.03739 17.9042 5.08132 18.1669 5.18179C18.4297 5.28227 18.6682 5.43703 18.8671 5.63596C19.0659 5.8349 19.2205 6.07354 19.3209 6.3363C19.4212 6.59906 19.465 6.88003 19.4494 7.16087L19.3914 8.20987C19.375 8.5092 19.426 8.80841 19.5408 9.08536C19.6555 9.36231 19.8311 9.60992 20.0544 9.80987L20.8364 10.5099C21.0461 10.6975 21.2138 10.9272 21.3287 11.184C21.4435 11.4409 21.5029 11.719 21.5029 12.0004C21.5029 12.2817 21.4435 12.5599 21.3287 12.8167C21.2138 13.0736 21.0461 13.3033 20.8364 13.4909L20.0544 14.1909C19.8309 14.3909 19.6553 14.6387 19.5405 14.9158C19.4258 15.193 19.3748 15.4924 19.3914 15.7919L19.4494 16.8419C19.4649 17.1227 19.421 17.4037 19.3205 17.6664C19.22 17.9291 19.0653 18.1677 18.8663 18.3665C18.6674 18.5653 18.4288 18.72 18.166 18.8203C17.9032 18.9207 17.6223 18.9645 17.3414 18.9489L16.2924 18.8909C15.9931 18.8744 15.6939 18.9254 15.4169 19.0402C15.14 19.155 14.8924 19.3305 14.6924 19.5539L13.9924 20.3359C13.8048 20.5455 13.5751 20.7133 13.3183 20.8281C13.0614 20.9429 12.7833 21.0023 12.5019 21.0023C12.2206 21.0023 11.9424 20.9429 11.6856 20.8281C11.4287 20.7133 11.199 20.5455 11.0114 20.3359L10.3114 19.5539C10.1114 19.3304 9.8636 19.1547 9.58646 19.04C9.30933 18.9252 9.00993 18.8743 8.71043 18.8909L7.66043 18.9489C7.37959 18.9644 7.09863 18.9204 6.83592 18.82C6.5732 18.7195 6.33464 18.5647 6.1358 18.3658C5.93695 18.1668 5.78231 17.9282 5.68196 17.6654C5.58161 17.4027 5.53781 17.1217 5.55343 16.8409L5.61143 15.7919C5.6279 15.4925 5.57686 15.1933 5.4621 14.9164C5.34734 14.6394 5.17179 14.3918 4.94843 14.1919L4.16643 13.4919C3.95676 13.3043 3.78903 13.0746 3.67419 12.8177C3.55936 12.5609 3.5 12.2827 3.5 12.0014C3.5 11.72 3.55936 11.4419 3.67419 11.185C3.78903 10.9282 3.95676 10.6985 4.16643 10.5109L4.94843 9.81087C5.17193 9.61081 5.34756 9.36304 5.46232 9.0859C5.57709 8.80877 5.62805 8.50937 5.61143 8.20987L5.55343 7.15987C5.53809 6.87911 5.58213 6.59827 5.68267 6.33567C5.78321 6.07308 5.93799 5.83464 6.13691 5.63591C6.33583 5.43717 6.57442 5.28262 6.83711 5.18233C7.0998 5.08204 7.38068 5.03827 7.66143 5.05387L8.71043 5.11187C9.00976 5.12834 9.30897 5.07731 9.58592 4.96254C9.86287 4.84778 10.1105 4.67223 10.3104 4.44887L11.0104 3.66687L11.0114 3.66587Z" stroke="#CE9944" stroke-width="1.5"/>
<path d="M10 9.5H10.01V9.51H10V9.5ZM15 14.5H15.01V14.51H15V14.5Z" stroke="#CE9944" stroke-width="2.25" stroke-linejoin="round"/>
<path d="M15.5 9L9.5 15" stroke="#CE9944" stroke-width="1.5" stroke-linecap="round" stroke-linejoin="round"/>
</svg>
