<svg width="19" height="20" viewBox="0 0 19 20" fill="none" xmlns="http://www.w3.org/2000/svg">
<g clip-path="url(#clip0_19_144)">
<mask id="mask0_19_144" style="mask-type:luminance" maskUnits="userSpaceOnUse" x="0" y="0" width="19" height="20">
<path d="M18.5 0H0.5V20H18.5V0Z" fill="white"/>
</mask>
<g mask="url(#mask0_19_144)">
<path d="M17.6931 15.3879C17.1631 14.9154 16.699 14.3737 16.3135 13.7774C15.8925 12.9543 15.6403 12.0554 15.5714 11.1335V8.41817C15.575 6.97014 15.0498 5.57062 14.0943 4.48256C13.1388 3.39449 11.8189 2.69279 10.3826 2.50928V1.80021C10.3826 1.60559 10.3053 1.41895 10.1677 1.28133C10.03 1.14372 9.84339 1.06641 9.64878 1.06641C9.45416 1.06641 9.26751 1.14372 9.1299 1.28133C8.99228 1.41895 8.91497 1.60559 8.91497 1.80021V2.52027C7.49148 2.71701 6.18752 3.42296 5.2446 4.50736C4.30169 5.59177 3.78371 6.98115 3.7866 8.41817V11.1335C3.71776 12.0554 3.46548 12.9543 3.04456 13.7774C2.66577 14.3723 2.20917 14.914 1.68689 15.3879C1.62825 15.4394 1.58126 15.5028 1.54904 15.5739C1.51682 15.645 1.5001 15.7221 1.5 15.8002V16.5477C1.5 16.6935 1.55791 16.8333 1.66099 16.9364C1.76408 17.0395 1.90388 17.0974 2.04966 17.0974H17.3303C17.4761 17.0974 17.6159 17.0395 17.719 16.9364C17.8221 16.8333 17.88 16.6935 17.88 16.5477V15.8002C17.8799 15.7221 17.8632 15.645 17.831 15.5739C17.7987 15.5028 17.7517 15.4394 17.6931 15.3879ZM2.6433 15.998C3.15471 15.504 3.60499 14.9504 3.98448 14.349C4.5147 13.355 4.82406 12.2581 4.89143 11.1335V8.41817C4.86963 7.77398 4.97769 7.13199 5.20916 6.53044C5.44064 5.92888 5.7908 5.38005 6.23879 4.91664C6.68679 4.45323 7.22346 4.08471 7.81684 3.83302C8.41023 3.58133 9.04819 3.45162 9.69275 3.45162C10.3373 3.45162 10.9753 3.58133 11.5687 3.83302C12.162 4.08471 12.6987 4.45323 13.1467 4.91664C13.5947 5.38005 13.9449 5.92888 14.1763 6.53044C14.4078 7.13199 14.5159 7.77398 14.4941 8.41817V11.1335C14.5614 12.2581 14.8708 13.355 15.401 14.349C15.7805 14.9504 16.2308 15.504 16.7422 15.998H2.6433Z" fill="#CE9944"/>
<path d="M1.40039 15.8006C1.40051 15.7084 1.42027 15.617 1.45835 15.533C1.49632 15.4493 1.55165 15.3745 1.62066 15.3137C2.13494 14.8469 2.5847 14.3137 2.95806 13.7281C3.37107 12.9191 3.61886 12.0359 3.68699 11.1302V8.41876L3.78699 8.41856C3.7841 6.98154 4.30208 5.59216 5.24499 4.50775C6.18791 3.42335 7.49187 2.7174 8.91536 2.52066L1.40039 15.8006ZM1.40039 15.8006V16.5481C1.40039 16.7204 1.46884 16.8857 1.59067 17.0075C1.71251 17.1293 1.87775 17.1978 2.05005 17.1978H17.3307C17.503 17.1978 17.6683 17.1293 17.7901 17.0075C17.912 16.8857 17.9804 16.7204 17.9804 16.5481V15.8006C17.9803 15.7084 17.9605 15.617 17.9224 15.533C17.8844 15.4491 17.8289 15.3742 17.7597 15.3134C17.2378 14.848 16.7807 14.3147 16.4006 13.7278C15.9877 12.9188 15.7399 12.0358 15.6718 11.1302M1.40039 15.8006L15.6718 11.1302M15.6718 11.1302V8.41881M15.6718 8.41881C15.6718 8.41873 15.6718 8.41889 15.6718 8.41881ZM15.6718 8.41881C15.6754 6.9465 15.1414 5.52327 14.1699 4.41696C13.2177 3.33268 11.9096 2.62572 10.483 2.42228V1.8006C10.483 1.57946 10.3951 1.36738 10.2388 1.21101C10.0824 1.05464 9.8703 0.966797 9.64917 0.966797C9.42803 0.966797 9.21595 1.05464 9.05958 1.21101C8.90321 1.36738 8.81536 1.57946 8.81536 1.8006V2.43416L15.5718 8.41856L15.6718 8.41881ZM15.3168 14.4028C15.6572 14.9421 16.0538 15.4434 16.4999 15.8984H2.88637C3.33249 15.4434 3.72911 14.9421 4.06944 14.4028L4.07311 14.3965C4.61009 13.3897 4.92341 12.2789 4.99164 11.1399L4.99182 11.1339V8.41856L4.99176 8.41518C4.97042 7.7844 5.07622 7.15578 5.30288 6.56674C5.52954 5.9777 5.87241 5.4403 6.31108 4.98654C6.74975 4.53277 7.27525 4.17192 7.85628 3.92547C8.43731 3.67902 9.062 3.55201 9.69314 3.55201C10.3243 3.55201 10.949 3.67902 11.53 3.92547C12.111 4.17192 12.6365 4.53277 13.0752 4.98654C13.5139 5.4403 13.8568 5.9777 14.0834 6.56674C14.3101 7.15578 14.4159 7.7844 14.3945 8.41518V8.41856V11.1339L14.3946 11.1399C14.4629 12.2789 14.7762 13.3897 15.3132 14.3965L15.3168 14.4028Z" stroke="#CE9944" stroke-width="0.2"/>
<path d="M9.57076 18.9329C9.91701 18.9249 10.2493 18.7948 10.5088 18.5654C10.7683 18.3361 10.9384 18.0223 10.9889 17.6797H8.09766C8.14959 18.0316 8.32759 18.3528 8.59857 18.5833C8.86954 18.8138 9.21503 18.9381 9.57076 18.9329Z" fill="#CE9944"/>
<path d="M9.5728 19.0333C9.94265 19.0248 10.2984 18.8857 10.5756 18.6408C10.8528 18.3958 11.0345 18.0607 11.0884 17.6947L11.1053 17.5801H10.9895H8.09826H7.98242L7.99933 17.6947C8.05479 18.0706 8.24493 18.4136 8.53437 18.6599C8.82381 18.9061 9.19283 19.0388 9.5728 19.0333Z" stroke="#CE9944" stroke-width="0.2"/>
</g>
</g>
<defs>
<clipPath id="clip0_19_144">
<rect width="18" height="20" fill="white" transform="translate(0.5)"/>
</clipPath>
</defs>
</svg>
