<svg width="21" height="20" viewBox="0 0 21 20" fill="none" xmlns="http://www.w3.org/2000/svg">
<g clip-path="url(#clip0_19_120)">
<mask id="mask0_19_120" style="mask-type:luminance" maskUnits="userSpaceOnUse" x="0" y="0" width="21" height="20">
<path d="M20.5 0H0.5V20H20.5V0Z" fill="white"/>
</mask>
<g mask="url(#mask0_19_120)">
<mask id="mask1_19_120" style="mask-type:luminance" maskUnits="userSpaceOnUse" x="0" y="0" width="21" height="20">
<path d="M20.5 0H0.5V19.8913H20.5V0Z" fill="white"/>
</mask>
<g mask="url(#mask1_19_120)">
<path d="M20.5012 2.78996C20.3984 3.00195 20.4086 3.2389 20.3543 3.46166C20.2124 4.06445 19.9678 4.6383 19.6312 5.15807C19.262 5.71669 18.8968 6.27922 18.4949 6.81434C18.0053 7.46891 17.3252 7.80868 16.5115 7.87575C16.1419 7.90611 15.7713 7.92471 15.4012 7.95066C14.8548 7.98983 14.4347 8.2498 14.095 8.67231C12.4477 10.7217 10.7974 12.769 9.14429 14.8141C7.93926 16.309 6.73423 17.8039 5.5292 19.2987C5.08857 19.8471 4.51331 20.0096 3.85384 19.8148C3.2022 19.6219 2.82865 19.1616 2.71752 18.4895C2.63184 17.9739 2.79732 17.5475 3.15814 17.1779C6.33816 13.9107 9.51817 10.6435 12.6982 7.37638C13.0722 6.99205 13.2607 6.54066 13.2318 6.00261C13.2152 5.69025 13.201 5.3779 13.1775 5.06652C13.1089 4.16275 13.3733 3.37305 14.044 2.76009C14.6967 2.16427 15.3307 1.54054 16.0846 1.06662C17.0479 0.455794 18.1815 0.169443 19.3193 0.249503C19.8809 0.283284 20.3474 0.742026 20.4292 1.30994C20.4463 1.42598 20.4238 1.55473 20.5021 1.65706L20.5012 2.78996ZM13.7983 5.55562C13.9819 6.5059 13.6196 7.31812 12.8813 8.06522C9.76704 11.2221 6.68609 14.4112 3.59191 17.5896C3.26047 17.9323 3.21004 18.3382 3.41469 18.7489C3.71382 19.3487 4.62983 19.4725 5.07927 18.9085C7.91886 15.3551 10.7844 11.8208 13.6382 8.27819C14.0117 7.81456 14.468 7.49486 15.058 7.38862C15.4692 7.31469 15.8873 7.30882 16.303 7.2907C17.1025 7.25496 17.7228 6.91715 18.1659 6.25181C18.4332 5.85182 18.7044 5.45525 18.9786 5.05918C19.735 3.96055 20.0268 2.75422 19.8339 1.43185C19.7849 1.08914 19.5401 0.850714 19.194 0.838964C18.2006 0.804693 17.2684 1.02843 16.4254 1.55963C15.6504 2.04921 15.0012 2.69351 14.3344 3.31283C14.0538 3.57378 13.9001 3.92432 13.8149 4.30032C13.7307 4.68807 13.7875 5.07778 13.7983 5.55562Z" fill="#CE9944" stroke="#CE9944" stroke-width="0.3"/>
<path d="M3.89046 0.000200283C4.01628 -0.00420597 4.17393 0.0643339 4.31297 0.181834C5.65296 1.30788 7.00568 2.42168 8.32756 3.57123C8.88862 4.06081 9.10746 4.73986 9.12656 5.47815C9.13586 5.82968 9.13096 6.1812 9.1295 6.53321C9.12426 6.79089 9.17616 7.04654 9.28146 7.28178C9.38677 7.51702 9.54286 7.72602 9.73854 7.89376C9.88884 8.02889 10.0401 8.16254 10.186 8.30207C10.3319 8.44161 10.3515 8.62569 10.235 8.75152C10.1184 8.87734 9.94123 8.88468 9.78456 8.74515C9.56572 8.54932 9.34393 8.35789 9.14174 8.14639C8.71873 7.70135 8.52976 7.16232 8.52829 6.54936C8.52829 6.13322 8.54591 5.71707 8.50625 5.30043C8.45044 4.72468 8.2125 4.24538 7.766 3.86987C6.5143 2.8202 5.2639 1.76858 4.01481 0.714992C3.98005 0.685617 3.9448 0.656732 3.90808 0.630295C3.89879 0.621031 3.88768 0.613793 3.87545 0.609037C3.86322 0.604281 3.85014 0.602111 3.83703 0.602663C3.82392 0.603215 3.81107 0.606476 3.79928 0.612243C3.78749 0.61801 3.77703 0.626157 3.76855 0.636169C3.75906 0.645303 3.75157 0.65631 3.74656 0.668493C3.74155 0.680675 3.73913 0.693765 3.73945 0.706933C3.73978 0.720101 3.74283 0.733058 3.74843 0.744981C3.75403 0.756904 3.76205 0.767532 3.77198 0.77619C3.80968 0.820742 3.85227 0.861378 3.89388 0.902503C4.85151 1.86046 5.8093 2.81808 6.76725 3.77538C7.21424 4.22286 7.21522 4.64978 6.77117 5.09383C6.37102 5.49562 5.9707 5.89626 5.57022 6.29576C5.15113 6.71338 4.71492 6.71142 4.2929 6.28989C3.33527 5.33291 2.37764 4.37512 1.42001 3.41652C1.3877 3.3842 1.3549 3.35238 1.3221 3.3186C1.27314 3.2667 1.21145 3.20257 1.14046 3.26426C1.06017 3.33329 1.11843 3.40526 1.16984 3.46694L2.23811 4.73986C2.93773 5.57216 3.64273 6.39906 4.335 7.23674C4.7815 7.77528 5.35823 8.01175 6.04267 8.02742C6.49113 8.03819 6.94105 8.00049 7.38902 8.05435C7.91768 8.11673 8.40595 8.36817 8.76378 8.76228C8.92436 8.93266 9.08201 9.10499 9.2372 9.28173C9.3924 9.45847 9.39926 9.61955 9.26511 9.74782C9.13096 9.87609 8.94982 9.84965 8.78875 9.67879C8.6688 9.55052 8.54738 9.42274 8.4338 9.28712C8.04605 8.82985 7.55646 8.6252 6.95917 8.6252C6.46567 8.6252 5.96825 8.66877 5.47867 8.57624C4.87305 8.45972 4.35262 8.18751 3.95165 7.7087C2.86706 6.41783 1.78214 5.12729 0.6969 3.83707C0.321878 3.38959 0.505961 2.7825 1.05087 2.65668C1.33238 2.59108 1.55661 2.70564 1.75244 2.90147C2.63076 3.78272 3.51021 4.66218 4.39081 5.53984C4.51957 5.6686 4.65029 5.79638 4.77758 5.92612C4.84955 5.99956 4.92984 6.02404 5.02237 5.97998C5.20401 5.89234 5.21821 5.79834 5.07525 5.65538C4.0073 4.58711 2.93919 3.51868 1.87092 2.45008C1.81367 2.39739 1.76214 2.33881 1.71719 2.2753C1.67876 2.22112 1.66185 2.15459 1.66972 2.08864C1.67759 2.02268 1.70969 1.96201 1.75978 1.91839C1.80302 1.86821 1.86326 1.83576 1.92894 1.82727C1.99463 1.81878 2.06114 1.83484 2.11571 1.87237C2.1806 1.91613 2.24023 1.96722 2.29343 2.02463C3.37052 3.10171 4.4476 4.17978 5.52469 5.25882C5.61967 5.35674 5.66471 5.35674 5.76507 5.26421C5.87964 5.1565 5.83019 5.10558 5.74647 5.02235C4.67167 3.95179 3.5985 2.87944 2.52697 1.8053C2.47333 1.75731 2.42417 1.70454 2.38009 1.64765C2.29294 1.51889 2.29735 1.3867 2.40653 1.2741C2.5157 1.16149 2.65866 1.14925 2.79379 1.2408C2.851 1.28451 2.9038 1.3337 2.95143 1.38768C4.02003 2.45563 5.08912 3.52292 6.1587 4.58956C6.20766 4.63852 6.24438 4.78539 6.36432 4.65712C6.46224 4.55333 6.56359 4.45541 6.43972 4.30756C6.40643 4.26741 6.36775 4.23216 6.33103 4.19545C5.3548 3.21922 4.37841 2.24331 3.40185 1.26773C3.16783 1.03518 3.07138 0.772273 3.18448 0.454533C3.28337 0.17547 3.54187 0.0026482 3.89046 0.000200283Z" fill="#CE9944" stroke="#CE9944" stroke-width="0.3"/>
<path d="M20.384 18.2287C20.3522 19.4066 19.2825 20.1567 18.2132 19.7919C17.9866 19.7077 17.7854 19.5667 17.6286 19.3826C15.7682 17.3421 13.9089 15.3011 12.0508 13.2599C11.9826 13.1904 11.9203 13.1152 11.8648 13.0352C11.8236 12.979 11.8057 12.9091 11.8148 12.84C11.824 12.771 11.8594 12.7081 11.9137 12.6646C11.9628 12.6156 12.0285 12.5867 12.0979 12.5837C12.1672 12.5807 12.2351 12.6038 12.2883 12.6484C12.3441 12.6932 12.3952 12.7438 12.4405 12.7992C14.3091 14.8483 16.1782 16.898 18.0477 18.9484C18.3811 19.3146 18.7821 19.3768 19.2291 19.1706C19.7755 18.9185 20.0124 18.0446 19.4592 17.5487C17.354 15.6545 15.2664 13.7397 13.172 11.8323C13.1382 11.8014 13.1029 11.7725 13.0706 11.7402C12.9237 11.5934 12.9017 11.4196 13.0163 11.2898C13.1308 11.1601 13.3056 11.1571 13.4682 11.2898C13.4931 11.3104 13.5171 11.3344 13.5396 11.3559C15.6481 13.2767 17.7571 15.1969 19.8665 17.1164C20.2092 17.4272 20.3865 17.8062 20.384 18.2287Z" fill="#CE9944" stroke="#CE9944" stroke-width="0.3"/>
</g>
</g>
</g>
<defs>
<clipPath id="clip0_19_120">
<rect width="20" height="20" fill="white" transform="translate(0.5)"/>
</clipPath>
</defs>
</svg>
