<svg width="25" height="24" viewBox="0 0 25 24" fill="none" xmlns="http://www.w3.org/2000/svg">
<path d="M13.4258 18.6537C13.4258 18.3776 13.6496 18.1537 13.9258 18.1537H18.976C19.2521 18.1537 19.476 18.3776 19.476 18.6537V19.1663C19.476 19.4424 19.2521 19.6663 18.976 19.6663H13.9258C13.6496 19.6663 13.4258 19.4424 13.4258 19.1663V18.6537ZM13.4258 15.6286C13.4258 15.3525 13.6496 15.1286 13.9258 15.1286H22.0011C22.2773 15.1286 22.5011 15.3525 22.5011 15.6286V16.1412C22.5011 16.4173 22.2773 16.6412 22.0011 16.6412H13.9258C13.6496 16.6412 13.4258 16.4173 13.4258 16.1412V15.6286ZM13.4258 12.6035C13.4258 12.3274 13.6496 12.1035 13.9258 12.1035H22.0011C22.2773 12.1035 22.5011 12.3274 22.5011 12.6035V13.1161C22.5011 13.3922 22.2773 13.6161 22.0011 13.6161H13.9258C13.6496 13.6161 13.4258 13.3922 13.4258 13.1161V12.6035Z" fill="#CE9944"/>
<path d="M15.3544 6.97074L12.3624 0.908594C12.179 0.536979 11.6491 0.536978 11.4657 0.908594L8.47371 6.97074L1.78411 7.94284C1.37402 8.00244 1.21026 8.5064 1.50699 8.79567L6.34782 13.5148L5.20472 20.1774C5.13464 20.5858 5.56333 20.8973 5.93016 20.7045L10.1341 18.4947C10.2985 18.4083 10.4015 18.2379 10.4015 18.0522V17.4728C10.4015 17.0966 10.0017 16.8552 9.66878 17.0303L7.93952 17.9395C7.57272 18.1323 7.144 17.8209 7.21403 17.4124L7.83844 13.7704L7.97306 12.9861L7.40358 12.4318L4.75732 9.85146C4.46063 9.56216 4.62443 9.05824 5.03451 8.99867L8.69152 8.46742L9.47805 8.35322L9.83047 7.64005L11.4657 4.32639C11.6491 3.95474 12.179 3.95474 12.3624 4.32639L13.9976 7.64005L14.35 8.35322L15.1366 8.46742L20.2782 9.21584C20.5518 9.25566 20.8058 9.0659 20.8452 8.79225L20.9183 8.28398C20.9576 8.01093 20.7683 7.75766 20.4953 7.71798L15.3544 6.97074Z" fill="#CE9944"/>
</svg>
