<svg width="21" height="20" viewBox="0 0 21 20" fill="none" xmlns="http://www.w3.org/2000/svg">
<g clip-path="url(#clip0_19_132)">
<mask id="mask0_19_132" style="mask-type:luminance" maskUnits="userSpaceOnUse" x="0" y="0" width="21" height="20">
<path d="M20.5 0H0.5V20H20.5V0Z" fill="white"/>
</mask>
<g mask="url(#mask0_19_132)">
<mask id="mask1_19_132" style="mask-type:luminance" maskUnits="userSpaceOnUse" x="0" y="0" width="21" height="20">
<path d="M20.5 0H0.5V19.9883H20.5V0Z" fill="white"/>
</mask>
<g mask="url(#mask1_19_132)">
<path d="M16.3139 18.9251C16.3139 19.0632 16.3204 19.2019 16.3139 19.3394C16.3065 19.504 16.2393 19.6604 16.125 19.7792C16.0107 19.898 15.8571 19.9711 15.6928 19.9849C15.3234 20.0152 15.0141 19.7933 14.9447 19.4343C14.8899 19.1547 14.9202 18.8692 14.9261 18.5866C14.9296 18.4176 14.8969 18.3261 14.7134 18.2894C14.4436 18.2298 14.1869 18.1214 13.956 17.9696C13.8587 17.9113 13.8004 17.9113 13.7229 17.9969C13.5481 18.1828 13.3675 18.3605 13.184 18.5365C12.8775 18.8319 12.4481 18.8406 12.1713 18.5615C11.8946 18.2824 11.905 17.8548 12.201 17.5495C12.3758 17.3671 12.5576 17.1859 12.7417 17.0105C12.8163 16.9394 12.8338 16.8847 12.7738 16.7897C12.6089 16.5329 12.4906 16.2491 12.4242 15.9513C12.3962 15.8219 12.3304 15.7974 12.2115 15.8015C11.9575 15.8103 11.7029 15.8085 11.4488 15.8015C11.0485 15.7928 10.7496 15.505 10.7386 15.1251C10.7275 14.7452 11.0299 14.4259 11.4378 14.4107C11.7064 14.3997 11.9755 14.402 12.2441 14.4107C12.3543 14.4142 12.3985 14.3734 12.4189 14.2732C12.4872 13.9758 12.6054 13.6921 12.7685 13.4342C12.8361 13.3282 12.8064 13.2722 12.7277 13.1977C12.5436 13.0229 12.3642 12.8417 12.1876 12.6587C11.9021 12.3627 11.8963 11.9397 12.1661 11.663C12.4358 11.3862 12.8722 11.3845 13.177 11.6793C13.3646 11.8611 13.5504 12.0458 13.7311 12.2351C13.7419 12.2511 13.756 12.2647 13.7725 12.2748C13.7889 12.285 13.8073 12.2915 13.8265 12.294C13.8457 12.2965 13.8652 12.2948 13.8837 12.2892C13.9022 12.2836 13.9193 12.2741 13.9338 12.2613C14.1988 12.0963 14.4892 11.976 14.7932 11.9053C14.9016 11.8815 14.9255 11.8238 14.9232 11.7218C14.9162 11.467 14.9162 11.2126 14.9232 10.9585C14.9325 10.5344 15.2349 10.2215 15.6223 10.2227C16.0098 10.2238 16.3081 10.535 16.3139 10.9632C16.318 11.2172 16.3215 11.4719 16.3139 11.7259C16.3099 11.8354 16.3495 11.8815 16.4497 11.9042C16.7543 11.9732 17.0448 12.094 17.3085 12.2613C17.4105 12.326 17.4606 12.2887 17.5276 12.22C17.7024 12.0376 17.8842 11.857 18.0665 11.6804C18.3707 11.3891 18.8019 11.3804 19.0792 11.6612C19.3565 11.9421 19.3437 12.3604 19.0588 12.6581C18.8786 12.8477 18.6937 13.0324 18.5041 13.2122C18.4272 13.2851 18.4185 13.3387 18.4767 13.4313C18.6404 13.6889 18.7586 13.9727 18.8263 14.2703C18.8549 14.3979 18.9178 14.4107 19.0227 14.409C19.2843 14.4049 19.5471 14.4003 19.8069 14.409C20.1757 14.423 20.4601 14.6782 20.4968 15.0132C20.5358 15.368 20.3255 15.7025 19.994 15.7788C19.7609 15.833 19.5162 15.7951 19.2767 15.8015C19.1898 15.8068 19.1026 15.8068 19.0157 15.8015C18.8992 15.791 18.8543 15.8353 18.8263 15.9513C18.7567 16.2481 18.6386 16.5314 18.4767 16.7897C18.4185 16.8812 18.4301 16.9359 18.5047 17.007C18.6941 17.1876 18.8788 17.3729 19.0605 17.5605C19.3472 17.8577 19.3519 18.2789 19.0809 18.5569C18.81 18.8348 18.3736 18.833 18.0695 18.5382C17.8824 18.3559 17.6971 18.1706 17.5159 17.9824C17.4519 17.9154 17.4023 17.8991 17.3161 17.9544C17.0529 18.1223 16.7628 18.2437 16.4584 18.3133C16.3338 18.3419 16.3128 18.4019 16.3174 18.5097C16.3238 18.6472 16.3174 18.7853 16.3174 18.9234L16.3139 18.9251ZM15.6148 17.0175C16.1156 17.0206 16.5977 16.8269 16.9572 16.4783C17.3168 16.1296 17.5251 15.6537 17.5375 15.153C17.5736 14.1241 16.6635 13.1522 15.5443 13.1971C14.6027 13.2344 13.6734 14.0711 13.7083 15.1781C13.7297 15.6704 13.9393 16.1358 14.2938 16.4781C14.6483 16.8204 15.1208 17.0135 15.6136 17.0175H15.6148Z" fill="#CE9944"/>
<path d="M10.0477 2.15309e-06C11.4022 0.000613924 12.7013 0.538183 13.6602 1.4949C14.6191 2.45162 15.1596 3.74946 15.1633 5.104C15.1715 7.92461 12.8689 10.2272 10.0413 10.2237C9.36876 10.2235 8.70289 10.0906 8.0818 9.83267C7.46071 9.57473 6.89661 9.1968 6.42179 8.72052C5.94698 8.24425 5.57078 7.67899 5.31475 7.05711C5.05871 6.43523 4.92787 5.76895 4.92971 5.09643C4.93418 3.74241 5.47552 2.44545 6.43498 1.49004C7.39443 0.534622 8.69367 -0.00123953 10.0477 2.15309e-06ZM10.0477 8.8283C11.0349 8.82768 11.9815 8.43499 12.6792 7.73658C13.377 7.03818 13.7688 6.09124 13.7685 5.104C13.7642 4.12051 13.3708 3.17871 12.6743 2.48437C11.9777 1.79002 11.0347 1.39958 10.0512 1.39836C9.56233 1.39644 9.0779 1.49104 8.62569 1.67674C8.17347 1.86244 7.76235 2.13558 7.41592 2.4805C7.06949 2.82542 6.79454 3.23533 6.60687 3.68673C6.41919 4.13813 6.32246 4.62213 6.32224 5.11099C6.32216 5.59987 6.41853 6.08395 6.60582 6.53553C6.79312 6.9871 7.06766 7.39728 7.41372 7.74259C7.75978 8.08789 8.17057 8.36153 8.62255 8.54783C9.07453 8.73414 9.55882 8.82945 10.0477 8.8283Z" fill="#CE9944"/>
<path d="M5.99771 19.0714H2.20525C1.17046 19.0714 0.515566 18.4212 0.515566 17.3893C0.515566 16.8306 0.464875 16.2671 0.546446 15.713C0.690943 14.7348 1.24563 13.9936 1.98151 13.3725C2.87005 12.6203 3.90425 12.1414 5.00313 11.7854C6.61823 11.261 8.27994 11.0355 9.97487 11.0332C10.4252 11.0332 10.7323 11.31 10.7364 11.7196C10.7405 12.1292 10.4363 12.4257 9.9906 12.4269C8.61147 12.4304 7.25215 12.5877 5.92371 12.96C4.82658 13.2671 3.78597 13.6965 2.89394 14.4271C2.44879 14.7913 2.07823 15.2137 1.94713 15.7969C1.92622 15.8887 1.91509 15.9825 1.91392 16.0766C1.90984 16.527 1.91392 16.978 1.9081 17.4284C1.9081 17.6032 1.97743 17.6865 2.15456 17.6766C2.21981 17.6725 2.28507 17.6766 2.35091 17.6766C4.87883 17.6766 7.40713 17.6766 9.93583 17.6766C10.392 17.6766 10.7032 17.9259 10.7329 18.3093C10.7433 18.405 10.7334 18.5018 10.7038 18.5934C10.6743 18.6849 10.6257 18.7692 10.5613 18.8407C10.4969 18.9122 10.4181 18.9693 10.3301 19.0083C10.2421 19.0472 10.1468 19.0672 10.0506 19.0668C9.70918 19.0749 9.36775 19.0668 9.02632 19.0668L5.99771 19.0714Z" fill="#CE9944"/>
</g>
</g>
</g>
<defs>
<clipPath id="clip0_19_132">
<rect width="20" height="20" fill="white" transform="translate(0.5)"/>
</clipPath>
</defs>
</svg>
