<svg width="25" height="24" viewBox="0 0 25 24" fill="none" xmlns="http://www.w3.org/2000/svg">
<path d="M11.2031 5.65893C11.2031 5.41165 11.3014 5.1745 11.4762 4.99965C11.6511 4.82479 11.8882 4.72656 12.1355 4.72656H15.865C16.1122 4.72656 16.3494 4.82479 16.5242 4.99965C16.6991 5.1745 16.7973 5.41165 16.7973 5.65893C16.7973 5.90621 16.6991 6.14336 16.5242 6.31821C16.3494 6.49306 16.1122 6.59129 15.865 6.59129H12.1355C11.8882 6.59129 11.6511 6.49306 11.4762 6.31821C11.3014 6.14336 11.2031 5.90621 11.2031 5.65893Z" fill="#CE9944"/>
<path fill-rule="evenodd" clip-rule="evenodd" d="M22.7303 12.6732C22.3918 12.9389 21.9527 13.1515 21.4231 13.324C21.1882 14.5 21.1023 14.7946 20.7753 15.7826C20.4483 16.7707 20.1719 17.5611 19.5 18.7228C18.8008 19.4938 17.9981 20.3795 17.0466 20.8011C16.095 21.2227 15.0658 21.4405 14.025 21.4405C12.9843 21.4405 11.955 21.2227 11.0035 20.8011C10.052 20.3795 9.30575 19.7166 8.60656 18.9457C8 18.2228 7.59956 16.9881 7.2726 16C6.94563 15.0119 6.81108 15 6.57612 13.324C6.04653 13.1515 5.60739 12.9389 5.26987 12.6732C4.83166 12.3282 4.53797 11.8677 4.50347 11.3138C4.47084 10.8001 4.67409 10.3638 4.87735 10.0561C5.078 9.76464 5.31626 9.50099 5.58595 9.27195C5.71648 9.15727 5.84514 9.05564 5.96449 8.96707C5.92906 8.77593 5.8899 8.54471 5.85074 8.27712C5.68556 7.10185 5.60455 5.91628 5.60832 4.72946C5.60832 4.4367 5.73326 4.21853 5.79107 4.12622C5.86379 4.00968 5.94957 3.90991 6.02789 3.82973C6.18359 3.66657 6.38498 3.50061 6.60595 3.34117C7.05349 3.01671 7.66885 2.65215 8.39983 2.31091C9.85711 1.63028 11.8589 1 13.9996 1C16.1413 1 18.1421 1.63121 19.5994 2.31091C20.2278 2.59834 20.8283 2.94322 21.3933 3.34117C21.6143 3.50061 21.8156 3.6675 21.9713 3.82973C22.0497 3.90991 22.1354 4.00968 22.2082 4.12622C22.266 4.21853 22.3909 4.4367 22.3909 4.72946C22.3909 6.22312 22.2697 7.43333 22.1485 8.27712C22.1093 8.54471 22.0702 8.77593 22.0348 8.96707C22.1541 9.05564 22.2837 9.15727 22.4142 9.27195C22.6473 9.47614 22.914 9.74187 23.1219 10.0561C23.3261 10.3638 23.5284 10.8001 23.4967 11.3148C23.4622 11.8677 23.1685 12.3282 22.7303 12.6732ZM6.7781 4.9626C6.79208 6.21943 6.89651 7.78954 7 8.5C7.02424 8.66783 7.11655 9.37269 7.13892 9.50509L20.7753 9.27195C20.7753 9.27195 20.9652 8.74111 21 8.5C21.1026 7.78954 21.2079 6.21943 21.2219 4.9626C21.1493 4.90125 20.8525 4.60964 20.7753 4.55418C20.4387 4.31083 19.4521 3.74675 18.8106 3.44746C17.5212 2.84515 15.7935 2.31091 13.9996 2.31091C12.2057 2.31091 10.4781 2.84515 9.18861 3.44746C8.54714 3.74675 7.33938 4.54397 7.00373 4.78639C6.92621 4.84243 6.85094 4.9006 6.7781 4.9626ZM7.27539 10.3237L7.2726 10.3255C7.11167 10.4328 6.95754 10.5498 6.81108 10.6761C6.64511 10.8215 6.51272 10.9633 6.43253 11.0863C6.41345 11.114 6.39632 11.143 6.38125 11.173C6.39446 11.1851 6.40814 11.1966 6.42228 11.2075C6.56213 11.3176 6.86235 11.4789 7.44788 11.6383C7.56349 11.67 7.6875 11.6998 7.8199 11.7297L7.82829 11.7315C8.29634 11.835 8.87254 11.9273 9.57461 12.0001C10.5694 12.1035 11.8216 12.1716 13.3861 12.1865L13.9996 12.1884C17.0084 12.1884 18.9542 12.001 20.1719 11.7315L20.1793 11.7297C20.3127 11.6998 20.4367 11.67 20.5523 11.6383C21.1369 11.4798 21.438 11.3176 21.577 11.2075C21.5911 11.1966 21.6048 11.1851 21.618 11.173C21.6032 11.143 21.5864 11.1141 21.5676 11.0863C21.4592 10.9339 21.3317 10.7961 21.1882 10.6761C21.042 10.5498 20.8882 10.4328 20.7276 10.3255L20.7238 10.3237H7.27539ZM13.8331 13.2937C16.2964 13.2937 19.0362 13.2275 20.5 13C20.5481 13.7602 19.4909 16.0747 19.2341 16.7918C18.9774 17.5089 18.5768 18.166 18.0571 18.7228C17.5374 19.2797 16.9095 19.7245 16.2118 20.0301C15.5141 20.3357 14.7613 20.4956 13.9996 20.5C13.2379 20.5044 12.4834 20.3532 11.7822 20.0556C11.081 19.7581 10.448 19.3205 9.9219 18.7697C9.39581 18.2189 8.98775 17.5664 8.72273 16.8523C8.45771 16.1382 7.46064 13.7607 7.5 13C8.86405 13.1883 11.6122 13.2937 13.8331 13.2937Z" fill="#CE9944"/>
</svg>
